<svg width="24" height="24" viewBox="0 0 24 24" fill="none" xmlns="http://www.w3.org/2000/svg">
<path d="M12 10.9C12.3314 10.9 12.6 11.1686 12.6 11.5V16.5C12.6 16.8314 12.3314 17.1 12 17.1C11.6686 17.1 11.4 16.8314 11.4 16.5V11.5C11.4 11.1686 11.6686 10.9 12 10.9Z" fill="black" stroke="#F5F5F5" stroke-width="0.3"/>
<path d="M12.85 8.00001C12.85 8.46945 12.4695 8.85001 12 8.85001C11.5305 8.85001 11.15 8.46945 11.15 8.00001C11.15 7.53056 11.5305 7.15001 12 7.15001C12.4695 7.15001 12.85 7.53056 12.85 8.00001Z" fill="black" stroke="#F5F5F5" stroke-width="0.3"/>
<path d="M16.6663 3.91783L16.683 3.76882L16.6663 3.91783C18.4245 4.11433 19.8435 5.49948 20.0502 7.26592C20.418 10.4112 20.418 13.5888 20.0502 16.7341C19.8435 18.5005 18.4246 19.8856 16.6663 20.0822C13.5899 20.426 10.4096 20.426 7.33315 20.0822C5.57492 19.8856 4.15595 18.5005 3.94934 16.7341L3.80036 16.7515L3.94934 16.7341C3.58147 13.5888 3.58147 10.4112 3.94934 7.26591C4.15595 5.49948 5.57492 4.11433 7.33315 3.91783C10.4096 3.57399 13.5899 3.57399 16.6663 3.91783ZM16.533 5.11041C13.5451 4.77646 10.4544 4.77646 7.46644 5.11041C6.25374 5.24594 5.28187 6.20279 5.14123 7.40531C4.78418 10.4581 4.78418 13.5419 5.14123 16.5947C5.28187 17.7972 6.25375 18.754 7.46644 18.8896C10.4544 19.2235 13.5451 19.2235 16.533 18.8896C17.7458 18.754 18.7176 17.7972 18.8582 16.5947C19.2153 13.5419 19.2153 10.4581 18.8582 7.40531C18.7176 6.20279 17.7458 5.24594 16.533 5.11041Z" fill="black" stroke="#F5F5F5" stroke-width="0.3"/>
</svg>
