<svg width="25" height="24" viewBox="0 0 25 24" fill="none" xmlns="http://www.w3.org/2000/svg">
<path d="M7.54165 17.1387C6.78035 17.0851 6.05 17.7304 6.05 18.7284C6.05 19.7081 6.77805 20.408 7.59783 20.408H16.9022C17.722 20.408 18.45 19.7081 18.45 18.7284C18.45 18.2866 18.8082 17.9284 19.25 17.9284C19.6918 17.9284 20.05 18.2866 20.05 18.7284C20.05 20.507 18.6881 22.008 16.9022 22.008H7.59783C5.81194 22.008 4.45 20.507 4.45 18.7284V5.6876C4.45 3.90901 5.81194 2.40801 7.59783 2.40801H16.9022C18.6196 2.40801 19.963 3.92873 19.963 5.6876V13.8611C19.963 15.6397 18.6011 17.1407 16.8152 17.1407H7.59783C7.57962 17.1407 7.56092 17.14 7.54165 17.1387ZM7.54165 17.1387L7.52759 17.3382L7.54125 17.1387C7.54138 17.1387 7.54151 17.1387 7.54165 17.1387ZM6.05 15.5725V15.874L6.32775 15.7568C6.71485 15.5934 7.1491 15.5127 7.61807 15.5404L7.61805 15.5407H7.62986H16.8152C17.635 15.5407 18.363 14.8408 18.363 13.8611V5.6876C18.363 4.68654 17.615 4.00801 16.9022 4.00801H7.59783C6.77805 4.00801 6.05 4.70789 6.05 5.6876V15.5725Z" fill="#171717" stroke="#F5F5F5" stroke-width="0.4"/>
</svg>
