<svg width="37" height="37" viewBox="0 0 37 37" fill="none" xmlns="http://www.w3.org/2000/svg">
<circle cx="18.5" cy="18.5" r="17.75" stroke="black" stroke-width="1.5"/>
<path d="M30 19.2C30 17 28.8 15 27 14C27 13.9 27 13.7 27 13.5C27 11 25 9 22.5 9C21.1 9 19.8 9.7 19 10.7C18.2 9.7 16.9 9 15.5 9C13 9 11 11 11 13.5C11 13.7 11 13.8 11 14C9.2 15 8 17 8 19.2C8 21.4 9.2 23.4 11 24.4C11 24.6 11 24.7 11 24.9C11 27.4 13 29.4 15.5 29.4C16.9 29.4 18.2 28.7 19 27.7C19.8 28.7 21.1 29.4 22.5 29.4C25 29.4 27 27.4 27 24.9C27 24.7 27 24.6 27 24.4C28.8 23.3 30 21.4 30 19.2ZM25.5 22.9C25 23.1 24.8 23.6 24.9 24.1C25 24.3 25 24.6 25 24.8C25 26.2 23.9 27.3 22.5 27.3C21.2 27.3 20.1 26.3 20 24.9C20 24.8 20 24.8 19.9 24.7V24.6C19.9 24.5 19.8 24.4 19.8 24.4C19.8 24.4 19.8 24.3 19.7 24.3C19.6 24.2 19.6 24.2 19.5 24.1C19.5 24.1 19.4 24.1 19.4 24C19.3 24 19.2 24 19.2 23.9H19.1H19C18.9 23.9 18.9 23.9 18.8 24C18.7 24 18.7 24.1 18.6 24.1C18.5 24.1 18.5 24.2 18.4 24.2L18.3 24.3C18.3 24.4 18.2 24.4 18.2 24.5V24.6C18.2 24.7 18.1 24.7 18.1 24.8C18 26.1 16.9 27.2 15.6 27.2C14.2 27.2 13.1 26.1 13.1 24.7C13.1 24.4 13.1 24.2 13.2 24C13.4 23.5 13.1 23 12.6 22.8C11 22.3 10 20.8 10 19.2C10 17.6 11 16.1 12.5 15.5C13 15.3 13.3 14.7 13.1 14.2C13 14 13 13.8 13 13.5C13 12.1 14.1 11 15.5 11C16.9 11 18 12.1 18 13.5V21.7C18 22.3 18.4 22.7 19 22.7C19.6 22.7 20 22.3 20 21.7V13.5C20 12.1 21.1 11 22.5 11C23.9 11 25 12.1 25 13.5C25 13.8 25 14 24.9 14.2C24.7 14.7 25 15.2 25.5 15.4C27 16.1 28 17.5 28 19.2C28 20.8 27 22.3 25.5 22.9Z" fill="black"/>
</svg>
