<svg width="18" height="16" viewBox="0 0 18 16" fill="none" xmlns="http://www.w3.org/2000/svg">
<path d="M15 13.9999V8.66659C15 8.31296 14.842 7.97382 14.5607 7.72378C14.2794 7.47373 13.8978 7.33325 13.5 7.33325H4.5C4.10218 7.33325 3.72064 7.47373 3.43934 7.72378C3.15804 7.97382 3 8.31296 3 8.66659V13.9999" stroke="#263539" stroke-linecap="round" stroke-linejoin="round"/>
<path d="M3 10.6667C3 10.6667 3.375 10 4.5 10C5.625 10 6.375 11.3333 7.5 11.3333C8.625 11.3333 9.375 10 10.5 10C11.625 10 12.375 11.3333 13.5 11.3333C14.625 11.3333 15 10.6667 15 10.6667" stroke="#263539" stroke-linecap="round" stroke-linejoin="round"/>
<path d="M1.5 14H16.5" stroke="#263539" stroke-linecap="round" stroke-linejoin="round"/>
<path d="M5.25 5.33325V6.66659" stroke="#263539" stroke-linecap="round" stroke-linejoin="round"/>
<path d="M9 5.33325V6.66659" stroke="#263539" stroke-linecap="round" stroke-linejoin="round"/>
<path d="M12.75 5.33325V6.66659" stroke="#263539" stroke-linecap="round" stroke-linejoin="round"/>
<path d="M5.25 2.66675H5.2575" stroke="#263539" stroke-width="2" stroke-linecap="round" stroke-linejoin="round"/>
<path d="M9 2.66675H9.0075" stroke="#263539" stroke-width="2" stroke-linecap="round" stroke-linejoin="round"/>
<path d="M12.75 2.66675H12.7575H12.75Z" fill="#D9D9D9"/>
<path d="M12.75 2.66675H12.7575" stroke="#263539" stroke-width="2" stroke-linecap="round" stroke-linejoin="round"/>
</svg>
