<svg width="19" height="19" viewBox="0 0 19 19" fill="none" xmlns="http://www.w3.org/2000/svg">
<path d="M19 15.0417V6.33333H0V15.0417C0 17.2278 1.77221 19 3.95833 19H15.0417C17.2278 19 19 17.2278 19 15.0417ZM6.32852 9.89343C6.32852 10.5479 5.79794 11.0785 5.14343 11.0785C4.48892 11.0785 3.95833 10.5479 3.95833 9.89343C3.95833 9.23892 4.48892 8.70833 5.14343 8.70833C5.79794 8.70833 6.32852 9.23892 6.32852 9.89343ZM6.32852 13.8518C6.32852 14.5063 5.79794 15.0369 5.14343 15.0369C4.48892 15.0369 3.95833 14.5063 3.95833 13.8518C3.95833 13.1973 4.48892 12.6667 5.14343 12.6667C5.79794 12.6667 6.32852 13.1973 6.32852 13.8518ZM10.6858 9.89343C10.6858 10.5479 10.1552 11.0785 9.50069 11.0785C8.84618 11.0785 8.31559 10.5479 8.31559 9.89343C8.31559 9.23892 8.84618 8.70833 9.50069 8.70833C10.1552 8.70833 10.6858 9.23892 10.6858 9.89343ZM10.6858 13.8518C10.6858 14.5063 10.1552 15.0369 9.50069 15.0369C8.84618 15.0369 8.31559 14.5063 8.31559 13.8518C8.31559 13.1973 8.84618 12.6667 9.50069 12.6667C10.1552 12.6667 10.6858 13.1973 10.6858 13.8518ZM15.0369 9.89343C15.0369 10.5479 14.5063 11.0785 13.8518 11.0785C13.1973 11.0785 12.6667 10.5479 12.6667 9.89343C12.6667 9.23892 13.1973 8.70833 13.8518 8.70833C14.5063 8.70833 15.0369 9.23892 15.0369 9.89343ZM19 3.95833C19 1.77221 17.2278 0 15.0417 0H3.95833C1.77221 0 0 1.77221 0 3.95833V4.75H19V3.95833Z" fill="#404851"/>
<path d="M0.5 6.83333H18.5V15.0417C18.5 16.9517 16.9517 18.5 15.0417 18.5H3.95833C2.04835 18.5 0.5 16.9517 0.5 15.0417V6.83333ZM5.14343 11.5785C6.07408 11.5785 6.82852 10.8241 6.82852 9.89343C6.82852 8.96278 6.07408 8.20833 5.14343 8.20833C4.21278 8.20833 3.45833 8.96278 3.45833 9.89343C3.45833 10.8241 4.21278 11.5785 5.14343 11.5785ZM5.14343 15.5369C6.07408 15.5369 6.82852 14.7824 6.82852 13.8518C6.82852 12.9211 6.07408 12.1667 5.14343 12.1667C4.21278 12.1667 3.45833 12.9211 3.45833 13.8518C3.45833 14.7824 4.21278 15.5369 5.14343 15.5369ZM9.50069 11.5785C10.4313 11.5785 11.1858 10.8241 11.1858 9.89343C11.1858 8.96278 10.4313 8.20833 9.50069 8.20833C8.57004 8.20833 7.81559 8.96278 7.81559 9.89343C7.81559 10.8241 8.57003 11.5785 9.50069 11.5785ZM9.50069 15.5369C10.4313 15.5369 11.1858 14.7824 11.1858 13.8518C11.1858 12.9211 10.4313 12.1667 9.50069 12.1667C8.57004 12.1667 7.81559 12.9211 7.81559 13.8518C7.81559 14.7824 8.57004 15.5369 9.50069 15.5369ZM13.8518 11.5785C14.7824 11.5785 15.5369 10.8241 15.5369 9.89343C15.5369 8.96278 14.7824 8.20833 13.8518 8.20833C12.9211 8.20833 12.1667 8.96278 12.1667 9.89343C12.1667 10.8241 12.9211 11.5785 13.8518 11.5785ZM15.0417 0.5C16.9517 0.5 18.5 2.04835 18.5 3.95833V4.25H0.5V3.95833C0.5 2.04835 2.04835 0.5 3.95833 0.5H15.0417Z" stroke="black" stroke-opacity="0.35"/>
</svg>
