<svg width="27" height="27" viewBox="0 0 27 27" fill="none" xmlns="http://www.w3.org/2000/svg">
<rect width="27" height="27" rx="13.5" fill="#CDCDCD"/>
<path d="M18.334 17.7998H9.66732C8.40065 17.7998 7.33398 16.7998 7.33398 15.4665V10.5998C7.33398 9.33317 8.33398 8.33317 9.66732 8.33317H10.4673L11.0673 7.53317C11.4673 6.99984 12.134 6.6665 12.8007 6.6665H15.134C15.8673 6.6665 16.4673 6.99984 16.934 7.53317L17.534 8.33317H18.334C19.6673 8.33317 20.6673 9.33317 20.6673 10.5998V15.5332C20.6673 16.7998 19.6673 17.7998 18.334 17.7998ZM9.66732 9.6665C9.13398 9.6665 8.66732 10.0665 8.66732 10.5998V15.5332C8.66732 16.0665 9.13398 16.5332 9.66732 16.5332H18.4007C18.934 16.5332 19.4007 16.0665 19.4007 15.5332V10.5998C19.4007 10.0665 18.934 9.59984 18.4007 9.59984H17.334C17.134 9.59984 16.934 9.53317 16.8007 9.33317L16.0007 8.33317C15.734 8.13317 15.4673 7.99984 15.2007 7.99984H12.8007C12.534 7.99984 12.2673 8.13317 12.0673 8.33317L11.2673 9.39984C11.134 9.53317 10.934 9.6665 10.734 9.6665H9.66732Z" fill="black"/>
<path d="M13.9995 15.6664C12.3995 15.6664 11.1328 14.3998 11.1328 12.7998C11.1328 11.1998 12.3995 9.93311 13.9995 9.93311C15.5995 9.93311 16.8661 11.1998 16.8661 12.7998C16.8661 14.3331 15.5995 15.6664 13.9995 15.6664ZM13.9995 11.2664C13.1328 11.2664 12.4661 11.9331 12.4661 12.7998C12.4661 13.6664 13.1328 14.3331 13.9995 14.3331C14.8661 14.3331 15.5328 13.6664 15.5328 12.7998C15.5328 11.9331 14.8661 11.2664 13.9995 11.2664Z" fill="black"/>
</svg>
