<svg width="24" height="24" viewBox="0 0 24 24" fill="none" xmlns="http://www.w3.org/2000/svg">
<path d="M7.41949 11.4651L7.41958 11.465L7.41456 11.46C7.08832 11.1385 7.08832 10.6668 7.41456 10.3452C7.74175 10.0227 8.22398 10.0221 8.55179 10.3433L11.9982 13.9403L12.1556 14.1046L12.2983 13.9275L18.181 6.62918L18.2946 6.48828L18.1657 6.36124C16.509 4.72818 14.4312 3.80426 12.1426 3.80426C7.57213 3.80426 3.82852 7.49025 3.82852 12.0024C3.82852 16.5145 7.57213 20.2005 12.1426 20.2005C16.7131 20.2005 20.4567 16.5145 20.4567 12.0024C20.4567 11.2883 20.3539 10.4731 20.1469 9.75553C20.1091 9.55864 20.1495 9.33575 20.2534 9.15127C20.3584 8.96501 20.5173 8.83562 20.7011 8.7994C21.1025 8.72027 21.5198 8.95531 21.692 9.3729C21.9859 10.2446 22.0852 11.1197 22.0852 12.0024C22.0852 17.3879 17.6133 21.8 12.1426 21.8C6.67191 21.8 2.2 17.3879 2.2 12.0024C2.2 6.61683 6.67191 2.20474 12.1426 2.20474C14.727 2.20474 17.3137 3.28368 19.102 5.04649L19.2589 5.20112L19.3977 5.03008L21.4262 2.53068C21.7698 2.10737 22.2421 2.14314 22.4491 2.34712L22.4666 2.36435L22.4877 2.37684C22.6768 2.48869 22.7758 2.67562 22.7961 2.88627C22.8168 3.09993 22.754 3.32314 22.6349 3.48104L12.697 15.7757L12.6746 15.8035L12.6631 15.8374C12.6044 16.011 12.421 16.1014 12.1426 16.1014C11.9891 16.1014 11.7382 16.0201 11.5754 15.8613L7.41949 11.4651Z" fill="black" stroke="#F5F5F5" stroke-width="0.4"/>
</svg>
