<svg width="37" height="37" viewBox="0 0 37 37" fill="none" xmlns="http://www.w3.org/2000/svg">
<circle cx="18.5" cy="18.5" r="17.75" stroke="black" stroke-width="1.5"/>
<path fill-rule="evenodd" clip-rule="evenodd" d="M11.7 13C10.7276 13 10 13.7766 10 14.6V23.4C10 24.2234 10.7276 25 11.7 25H19C19.5523 25 20 25.4477 20 26C20 26.5523 19.5523 27 19 27H11.7C9.67236 27 8 25.3766 8 23.4V14.6C8 12.6234 9.67236 11 11.7 11H14.4C17.5231 11 20 13.4189 20 16.4C20 16.9523 19.5523 17.4 19 17.4C18.4477 17.4 18 16.9523 18 16.4C18 14.5811 16.4769 13 14.4 13H11.7Z" fill="black"/>
<path fill-rule="evenodd" clip-rule="evenodd" d="M23.5 13C21.5376 13 20 14.5668 20 16.4V23.4C20 23.9523 19.5523 24.4 19 24.4C18.4477 24.4 18 23.9523 18 23.4V16.4C18 13.4332 20.4624 11 23.5 11H26.2C28.3033 11 30 12.6 30 14.6V23.4C30 25.3766 28.3276 27 26.3 27H19C18.4477 27 18 26.5523 18 26C18 25.4477 18.4477 25 19 25H26.3C27.2724 25 28 24.2234 28 23.4V14.6C28 13.8 27.2967 13 26.2 13H23.5Z" fill="black"/>
</svg>
