<svg width="24" height="24" viewBox="0 0 24 24" fill="none" xmlns="http://www.w3.org/2000/svg">
<path d="M13.988 7.28773L13.9878 7.28792C13.9316 7.34417 13.9 7.42046 13.9 7.5V9.45V9.6H14.05H16.9C17.0848 9.6 17.2592 9.68509 17.373 9.83074C17.4866 9.97636 17.5269 10.1662 17.4821 10.3455C17.4821 10.3455 17.4821 10.3455 17.4821 10.3455L16.5821 13.9455C16.5153 14.2127 16.2754 14.4 16 14.4H14.05H13.9V14.55V21C13.9 21.3314 13.6314 21.6 13.3 21.6H9.7C9.36863 21.6 9.1 21.3314 9.1 21V14.55V14.4H8.95H7C6.66863 14.4 6.4 14.1314 6.4 13.8V10.2C6.4 9.86863 6.66863 9.6 7 9.6H8.95H9.1V9.45V7.5C9.1 6.14739 9.63732 4.8502 10.5938 3.89376C11.5502 2.93732 12.8474 2.4 14.2 2.4H16.9C17.2314 2.4 17.5 2.66863 17.5 3V6.6C17.5 6.93137 17.2314 7.2 16.9 7.2H14.2C14.1203 7.2 14.0442 7.23165 13.988 7.28773ZM11.4422 4.74228L11.4422 4.74229C10.7109 5.47368 10.3 6.46566 10.3 7.5V10.2C10.3 10.5314 10.0314 10.8 9.7 10.8H7.75H7.6V10.95V13.05V13.2H7.75H9.7C10.0314 13.2 10.3 13.4686 10.3 13.8V20.25V20.4H10.45H12.55H12.7V20.25V13.8C12.7 13.4686 12.9686 13.2 13.3 13.2H15.4144H15.5315L15.5599 13.0864L16.0849 10.9864L16.1315 10.8H15.9394H13.3C12.9686 10.8 12.7 10.5314 12.7 10.2V7.5C12.7 7.10217 12.858 6.72065 13.1394 6.43935L13.1394 6.43933C13.4206 6.15804 13.8022 6 14.2 6H16.15H16.3V5.85V3.75V3.6H16.15H14.2C13.1656 3.6 12.1737 4.01089 11.4422 4.74228Z" fill="#171717" stroke="#F5F5F5" stroke-width="0.3"/>
</svg>
