<svg width="10" height="10" viewBox="0 0 10 10" fill="none" xmlns="http://www.w3.org/2000/svg">
<path fill-rule="evenodd" clip-rule="evenodd" d="M5 0.25C2.37665 0.25 0.25 2.37665 0.25 5C0.25 7.62305 2.37618 9.74955 4.99915 9.75H5.00085C7.6238 9.74955 9.75 7.62305 9.75 5C9.75 2.37665 7.62335 0.25 5 0.25ZM0.8875 3.92358C0.797765 4.26735 0.75 4.6281 0.75 5C0.75 5.3719 0.797765 5.73265 0.8875 6.0764V6H2.82646C2.77752 5.67805 2.75 5.34345 2.75 5C2.75 4.65655 2.77752 4.32195 2.82646 4H0.8875V3.92358ZM1.02227 3.5H2.92123C3.0771 2.81391 3.32339 2.20018 3.59227 1.6997C3.77653 1.35675 3.97368 1.06266 4.1636 0.832275C2.71569 1.12124 1.53317 2.14588 1.02227 3.5ZM3.33267 4C3.27995 4.32125 3.25 4.6561 3.25 5C3.25 5.3439 3.27995 5.67875 3.33267 6H6.66735C6.72005 5.67875 6.75 5.3439 6.75 5C6.75 4.6561 6.72005 4.32125 6.66735 4H3.33267ZM6.56505 3.5H3.43498C3.58031 2.90737 3.79702 2.37508 4.03275 1.93634C4.24365 1.54376 4.4663 1.2326 4.65995 1.02352C4.75715 0.918625 4.84225 0.844575 4.9103 0.79868C4.96225 0.763645 4.99125 0.75379 5 0.75104C5.00875 0.75379 5.03775 0.763645 5.0897 0.79868C5.15775 0.844575 5.24285 0.918625 5.34005 1.02352C5.5337 1.2326 5.75635 1.54376 5.96725 1.93634C6.203 2.37508 6.4197 2.90737 6.56505 3.5ZM7.17355 4C7.2225 4.32195 7.25 4.65655 7.25 5C7.25 5.34345 7.2225 5.67805 7.17355 6H9.1125V6.0764C9.20225 5.73265 9.25 5.3719 9.25 5C9.25 4.6281 9.20225 4.26735 9.1125 3.92358V4H7.17355ZM8.9777 3.5H7.07875C6.9229 2.81391 6.6766 2.20018 6.40775 1.6997C6.2235 1.35675 6.0263 1.06266 5.8364 0.832275C7.2843 1.12124 8.46685 2.14588 8.9777 3.5ZM4.1636 9.16775C2.71569 8.87875 1.53317 7.8541 1.02227 6.5H2.92123C3.0771 7.1861 3.32339 7.79985 3.59227 8.3003C3.77653 8.64325 3.97368 8.93735 4.1636 9.16775ZM4.03275 8.06365C3.79702 7.6249 3.58031 7.09265 3.43498 6.5H6.56505C6.4197 7.09265 6.203 7.6249 5.96725 8.06365C5.75635 8.45625 5.5337 8.7674 5.34005 8.9765C5.24285 9.08135 5.15775 9.1554 5.0897 9.2013C5.03775 9.23635 5.00875 9.2462 5 9.24895C4.99125 9.2462 4.96225 9.23635 4.9103 9.2013C4.84225 9.1554 4.75715 9.08135 4.65995 8.9765C4.4663 8.7674 4.24365 8.45625 4.03275 8.06365ZM6.40775 8.3003C6.6766 7.79985 6.9229 7.1861 7.07875 6.5H8.9777C8.46685 7.8541 7.2843 8.87875 5.8364 9.16775C6.0263 8.93735 6.2235 8.64325 6.40775 8.3003Z" fill="#171717"/>
</svg>
