<svg width="12" height="12" viewBox="0 0 12 12" fill="none" xmlns="http://www.w3.org/2000/svg">
<path fill-rule="evenodd" clip-rule="evenodd" d="M6 1.25C3.37665 1.25 1.25 3.37665 1.25 6C1.25 8.62305 3.37618 10.7495 5.99915 10.75H6.00085C8.6238 10.7495 10.75 8.62305 10.75 6C10.75 3.37665 8.62335 1.25 6 1.25ZM1.8875 4.92358C1.79777 5.26735 1.75 5.6281 1.75 6C1.75 6.3719 1.79777 6.73265 1.8875 7.0764V7H3.82646C3.77752 6.67805 3.75 6.34345 3.75 6C3.75 5.65655 3.77752 5.32195 3.82646 5H1.8875V4.92358ZM2.02227 4.5H3.92123C4.0771 3.81391 4.32339 3.20018 4.59227 2.6997C4.77653 2.35675 4.97368 2.06266 5.1636 1.83228C3.71569 2.12124 2.53317 3.14588 2.02227 4.5ZM4.33267 5C4.27995 5.32125 4.25 5.6561 4.25 6C4.25 6.3439 4.27995 6.67875 4.33267 7H7.66735C7.72005 6.67875 7.75 6.3439 7.75 6C7.75 5.6561 7.72005 5.32125 7.66735 5H4.33267ZM7.56505 4.5H4.43498C4.58031 3.90737 4.79702 3.37508 5.03275 2.93634C5.24365 2.54376 5.4663 2.2326 5.65995 2.02352C5.75715 1.91862 5.84225 1.84457 5.9103 1.79868C5.96225 1.76364 5.99125 1.75379 6 1.75104C6.00875 1.75379 6.03775 1.76364 6.0897 1.79868C6.15775 1.84457 6.24285 1.91862 6.34005 2.02352C6.5337 2.2326 6.75635 2.54376 6.96725 2.93634C7.203 3.37508 7.4197 3.90737 7.56505 4.5ZM8.17355 5C8.2225 5.32195 8.25 5.65655 8.25 6C8.25 6.34345 8.2225 6.67805 8.17355 7H10.1125V7.0764C10.2023 6.73265 10.25 6.3719 10.25 6C10.25 5.6281 10.2023 5.26735 10.1125 4.92358V5H8.17355ZM9.9777 4.5H8.07875C7.9229 3.81391 7.6766 3.20018 7.40775 2.6997C7.2235 2.35675 7.0263 2.06266 6.8364 1.83228C8.2843 2.12124 9.46685 3.14588 9.9777 4.5ZM5.1636 10.1678C3.71569 9.87875 2.53317 8.8541 2.02227 7.5H3.92123C4.0771 8.1861 4.32339 8.79985 4.59227 9.3003C4.77653 9.64325 4.97368 9.93735 5.1636 10.1678ZM5.03275 9.06365C4.79702 8.6249 4.58031 8.09265 4.43498 7.5H7.56505C7.4197 8.09265 7.203 8.6249 6.96725 9.06365C6.75635 9.45625 6.5337 9.7674 6.34005 9.9765C6.24285 10.0813 6.15775 10.1554 6.0897 10.2013C6.03775 10.2364 6.00875 10.2462 6 10.249C5.99125 10.2462 5.96225 10.2364 5.9103 10.2013C5.84225 10.1554 5.75715 10.0813 5.65995 9.9765C5.4663 9.7674 5.24365 9.45625 5.03275 9.06365ZM7.40775 9.3003C7.6766 8.79985 7.9229 8.1861 8.07875 7.5H9.9777C9.46685 8.8541 8.2843 9.87875 6.8364 10.1678C7.0263 9.93735 7.2235 9.64325 7.40775 9.3003Z" fill="white"/>
</svg>
