<svg width="20" height="16" viewBox="0 0 20 16" fill="none" xmlns="http://www.w3.org/2000/svg">
<path d="M12 5C12 4.17157 12.6716 3.5 13.5 3.5C14.3284 3.5 15 4.17157 15 5C15 5.82843 14.3284 6.5 13.5 6.5C12.6716 6.5 12 5.82843 12 5Z" fill="#798284"/>
<path d="M1.63135 10.0149L1.59783 8.85596C1.54703 7.0998 1.6526 5.34024 1.91457 3.59819C2.06152 2.6209 2.85914 1.87167 3.84372 1.78608L5.35395 1.6548C8.44533 1.38607 11.5543 1.38607 14.6457 1.6548L16.1559 1.78608C17.1405 1.87167 17.9381 2.6209 18.0851 3.59819L17.5906 3.67254L18.0851 3.59819C18.5239 6.51632 18.5239 9.48361 18.0851 12.4017C18.0851 12.4017 18.0851 12.4017 18.0851 12.4018L1.63135 10.0149ZM1.63135 10.0149L2.45117 9.19506M1.63135 10.0149L2.45117 9.19506M2.45117 9.19506L6.32304 5.32323L6.32305 5.32321M2.45117 9.19506L6.32305 5.32321M6.32305 5.32321C6.37172 5.27455 6.43833 5.24809 6.50718 5.25011L6.32305 5.32321ZM1.91457 12.4017C2.06152 13.3791 2.85914 14.1283 3.8437 14.2139L5.35395 14.3452L5.35396 14.3452C8.44533 14.6139 11.5543 14.6139 14.6457 14.3452L14.6457 14.3452L16.1558 14.2139C16.1559 14.2139 16.1559 14.2139 16.1559 14.2139C16.3889 14.1937 16.6118 14.1362 16.8182 14.0471L17.4575 13.7711L16.9917 13.2535L13.6426 9.53241L13.4235 9.289L13.1128 9.39256L10.5789 10.2372L10.737 10.7115L10.5789 10.2372C10.484 10.2688 10.3794 10.2409 10.3128 10.166L6.84141 6.26062L6.48911 5.86428L6.11415 6.23925L1.87046 10.4829L1.70337 10.65L1.7264 10.8852C1.77602 11.3919 1.83874 11.8975 1.91457 12.4017ZM1.91457 12.4017L2.40901 12.3274M1.91457 12.4017L2.40901 12.3274M2.40901 12.3274C2.33446 11.8317 2.2728 11.3346 2.22402 10.8365L14.6024 13.8471C11.5398 14.1133 8.45982 14.1133 5.39726 13.8471L3.88702 13.7158C3.13269 13.6502 2.5216 13.0762 2.40901 12.3274ZM14.689 14.8433L14.689 14.8433C11.5687 15.1146 8.43091 15.1146 5.31066 14.8433L5.31062 14.8433L3.80045 14.7121C3.80043 14.7121 3.80041 14.7121 3.80039 14.7121C2.58556 14.6064 1.60145 13.682 1.42012 12.4762C0.973892 9.50874 0.973892 6.49126 1.42012 3.52384C1.60145 2.318 2.5856 1.39356 3.80042 1.28795L5.31065 1.15667C8.43091 0.885438 11.5687 0.885438 14.689 1.15667L16.1992 1.28795C17.4141 1.39356 18.3982 2.31801 18.5796 3.52385C19.0258 6.49126 19.0258 9.50874 18.5796 12.4762C18.3983 13.682 17.4141 14.6064 16.1992 14.7121C16.1992 14.7121 16.1992 14.7121 16.1992 14.7121L14.689 14.8433Z" fill="black" stroke="#798284"/>
</svg>
