<svg width="24" height="24" viewBox="0 0 24 24" fill="none" xmlns="http://www.w3.org/2000/svg">
<path d="M18.437 20.937H5.56299C4.89995 20.937 4.26406 20.6736 3.79522 20.2048C3.32638 19.7359 3.06299 19.1 3.06299 18.437V5.563C3.06299 4.89996 3.32638 4.26408 3.79522 3.79524C4.26406 3.3264 4.89995 3.063 5.56299 3.063H18.437C19.1 3.063 19.7359 3.3264 20.2048 3.79524C20.6736 4.26408 20.937 4.89996 20.937 5.563V18.437C20.937 19.1 20.6736 19.7359 20.2048 20.2048C19.7359 20.6736 19.1 20.937 18.437 20.937ZM5.56299 4.063C5.16516 4.063 4.78363 4.22104 4.50233 4.50234C4.22102 4.78365 4.06299 5.16518 4.06299 5.563V18.437C4.06299 18.8348 4.22102 19.2164 4.50233 19.4977C4.78363 19.779 5.16516 19.937 5.56299 19.937H18.437C18.8348 19.937 19.2163 19.779 19.4976 19.4977C19.779 19.2164 19.937 18.8348 19.937 18.437V5.563C19.937 5.16518 19.779 4.78365 19.4976 4.50234C19.2163 4.22104 18.8348 4.063 18.437 4.063H5.56299Z" fill="#171717"/>
<path d="M12.0002 16.594C11.0915 16.593 10.2036 16.3227 9.44857 15.8171C8.69357 15.3116 8.10539 14.5935 7.7584 13.7537C7.41141 12.914 7.32119 11.9902 7.49913 11.0991C7.67708 10.2081 8.1152 9.38981 8.75812 8.74773C9.40104 8.10564 10.2199 7.66859 11.1112 7.49181C12.0024 7.31502 12.9261 7.40646 13.7654 7.75454C14.6048 8.10262 15.322 8.69174 15.8266 9.4474C16.3312 10.2031 16.6004 11.0914 16.6002 12C16.5986 13.219 16.1132 14.3874 15.2507 15.2488C14.3882 16.1102 13.2191 16.594 12.0002 16.594ZM12.0002 8.4C11.2896 8.40099 10.5952 8.61255 10.0048 9.00795C9.41434 9.40335 8.95434 9.96486 8.68286 10.6216C8.41138 11.2783 8.34061 12.0007 8.47948 12.6976C8.61836 13.3945 8.96064 14.0346 9.46311 14.537C9.96558 15.0395 10.6057 15.3818 11.3026 15.5207C11.9995 15.6595 12.7219 15.5888 13.3786 15.3173C14.0353 15.0458 14.5968 14.5858 14.9922 13.9954C15.3876 13.405 15.5992 12.7106 15.6002 12C15.6002 11.0452 15.2209 10.1295 14.5457 9.45441C13.8706 8.77928 12.9549 8.4 12.0002 8.4Z" fill="#171717"/>
<path d="M17.2 7.905C17.7937 7.905 18.275 7.4237 18.275 6.83C18.275 6.23629 17.7937 5.755 17.2 5.755C16.6063 5.755 16.125 6.23629 16.125 6.83C16.125 7.4237 16.6063 7.905 17.2 7.905Z" fill="#171717"/>
</svg>
