<svg width="22" height="21" viewBox="0 0 22 21" fill="none" xmlns="http://www.w3.org/2000/svg">
<path fill-rule="evenodd" clip-rule="evenodd" d="M17.1383 4.45673C15.5446 2.9959 12.8724 2.9959 11.2787 4.45673L9.81501 5.79847C9.45703 6.12662 8.87663 6.12662 8.51865 5.79847C8.16067 5.47032 8.16067 4.93828 8.51865 4.61013L9.98236 3.2684C12.292 1.15127 16.125 1.15127 18.4346 3.2684C20.7442 5.38553 20.7442 8.89919 18.4346 11.0163L16.9709 12.3581C16.6129 12.6862 16.0325 12.6862 15.6746 12.3581C15.3166 12.0299 15.3166 11.4979 15.6746 11.1697L17.1383 9.82799C18.7319 8.36716 18.7319 5.91756 17.1383 4.45673ZM14.3983 6.96833C14.7563 7.29648 14.7563 7.82852 14.3983 8.15667L8.89834 13.1983C8.54036 13.5265 7.95996 13.5265 7.60198 13.1983C7.244 12.8702 7.244 12.3381 7.60198 12.01L13.102 6.96833C13.46 6.64018 14.0404 6.64018 14.3983 6.96833ZM6.32576 7.80861C6.68374 8.13676 6.68374 8.6688 6.32576 8.99694L4.86205 10.3387C3.26842 11.7995 3.26842 14.2491 4.86205 15.7099C6.45569 17.1708 9.12797 17.1708 10.7216 15.7099L12.1853 14.3682C12.5433 14.0401 13.1237 14.04 13.4817 14.3682C13.8397 14.6963 13.8397 15.2284 13.4817 15.5565L12.018 16.8983C9.70837 19.0154 5.87529 19.0154 3.56569 16.8983C1.2561 14.7811 1.2561 11.2675 3.56569 9.15035L5.0294 7.80861C5.38738 7.48046 5.96778 7.48046 6.32576 7.80861Z" fill="#263539" stroke="#F5F5F5" stroke-width="0.6" stroke-miterlimit="10" stroke-linecap="round" stroke-linejoin="round"/>
</svg>
