<svg width="24" height="24" viewBox="0 0 24 24" fill="none" xmlns="http://www.w3.org/2000/svg">
<path d="M2.4 4C2.4 2.56406 3.56406 1.4 5 1.4C6.43594 1.4 7.6 2.56406 7.6 4C7.6 5.43594 6.43594 6.6 5 6.6C3.56406 6.6 2.4 5.43594 2.4 4ZM5 2.6C4.2268 2.6 3.6 3.2268 3.6 4C3.6 4.7732 4.2268 5.4 5 5.4C5.7732 5.4 6.4 4.7732 6.4 4C6.4 3.2268 5.7732 2.6 5 2.6Z" fill="#171717" stroke="#F5F5F5" stroke-width="0.3"/>
<path d="M3.75 8.6H3.6V8.75V20.25V20.4H3.75H6.25H6.4V20.25V8.75V8.6H6.25H3.75ZM2.4 8C2.4 7.66863 2.66863 7.4 3 7.4H7C7.33137 7.4 7.6 7.66863 7.6 8V21C7.6 21.3314 7.33137 21.6 7 21.6H3C2.66863 21.6 2.4 21.3314 2.4 21V8Z" fill="#171717" stroke="#F5F5F5" stroke-width="0.3"/>
<path d="M14.6 8.43402V8.66149L14.8091 8.57189L15.2444 8.38535L15.2444 8.38535C15.9781 8.07089 16.763 7.87362 17.5569 7.80145C20.2454 7.55704 22.6 9.67 22.6 12.3802V21C22.6 21.3314 22.3314 21.6 22 21.6H18C17.6686 21.6 17.4 21.3314 17.4 21V14C17.4 13.6287 17.2525 13.2726 16.99 13.01C16.7274 12.7475 16.3713 12.6 16 12.6C15.6287 12.6 15.2726 12.7475 15.01 13.01C14.7475 13.2726 14.6 13.6287 14.6 14V21C14.6 21.3314 14.3314 21.6 14 21.6H10C9.66863 21.6 9.4 21.3314 9.4 21V8C9.4 7.66863 9.66863 7.4 10 7.4H14C14.3314 7.4 14.6 7.66863 14.6 8V8.43402ZM10.75 8.6H10.6V8.75V20.25V20.4H10.75H13.25H13.4V20.25V14C13.4 13.3105 13.6739 12.6491 14.1616 12.1616L14.1616 12.1616C14.6491 11.6739 15.3105 11.4 16 11.4C16.6895 11.4 17.3509 11.6739 17.8384 12.1616L17.8384 12.1616C18.3261 12.6491 18.6 13.3105 18.6 14V20.25V20.4H18.75H21.25H21.4V20.25V12.3802C21.4 10.3865 19.662 8.81501 17.6655 8.99653C16.9959 9.05739 16.3339 9.22394 15.7171 9.48833C15.7171 9.48833 15.7171 9.48833 15.7171 9.48833L14.2363 10.1229L14.2954 10.2608L14.2363 10.1229C14.051 10.2024 13.8381 10.1833 13.6696 10.0723C13.5013 9.96129 13.4 9.77308 13.4 9.57143V8.75V8.6H13.25H10.75Z" fill="#171717" stroke="#F5F5F5" stroke-width="0.3"/>
</svg>
