<svg width="12" height="12" viewBox="0 0 12 12" fill="none" xmlns="http://www.w3.org/2000/svg">
<path fill-rule="evenodd" clip-rule="evenodd" d="M9.34806 2.65194C8.47881 1.78269 7.02119 1.78269 6.15194 2.65194L5.35355 3.45033C5.15829 3.64559 4.84171 3.64559 4.64645 3.45033C4.45118 3.25507 4.45118 2.93848 4.64645 2.74322L5.44483 1.94483C6.70461 0.685055 8.79539 0.685055 10.0552 1.94483C11.3149 3.20461 11.3149 5.29539 10.0552 6.55517L9.25678 7.35355C9.06152 7.54882 8.74493 7.54882 8.54967 7.35355C8.35441 7.15829 8.35441 6.84171 8.54967 6.64645L9.34806 5.84806C10.2173 4.97881 10.2173 3.52119 9.34806 2.65194ZM7.85355 4.14645C8.04882 4.34171 8.04882 4.65829 7.85355 4.85355L4.85355 7.85355C4.65829 8.04882 4.34171 8.04882 4.14645 7.85355C3.95118 7.65829 3.95118 7.34171 4.14645 7.14645L7.14645 4.14645C7.34171 3.95118 7.65829 3.95118 7.85355 4.14645ZM3.45033 4.64645C3.64559 4.84171 3.64559 5.15829 3.45033 5.35355L2.65194 6.15194C1.78269 7.02119 1.78269 8.47881 2.65194 9.34806C3.52119 10.2173 4.97881 10.2173 5.84806 9.34806L6.64645 8.54967C6.84171 8.35441 7.15829 8.35441 7.35355 8.54967C7.54882 8.74493 7.54882 9.06152 7.35355 9.25678L6.55517 10.0552C5.29539 11.3149 3.20461 11.3149 1.94483 10.0552C0.685055 8.79539 0.685055 6.70461 1.94483 5.44483L2.74322 4.64645C2.93848 4.45118 3.25507 4.45118 3.45033 4.64645Z" fill="white"/>
</svg>
