<svg width="37" height="37" viewBox="0 0 37 37" fill="none" xmlns="http://www.w3.org/2000/svg">
<circle cx="18.5" cy="18.5" r="17.75" stroke="black" stroke-width="1.5"/>
<path fill-rule="evenodd" clip-rule="evenodd" d="M18.0594 8.03372C23.3938 7.58884 27.8873 11.6024 27.9997 16.7773L28 16.799C28 18.6079 27.4334 20.2985 26.4291 21.7503L26.4191 21.7645L21.3434 28.8361C21.3334 28.8501 21.3229 28.8639 21.3122 28.8774C20.1455 30.3369 17.8509 30.4267 16.7298 28.8317L11.6525 21.7578C10.3291 19.8814 9.63357 17.5124 10.196 15.0052C10.8895 11.2459 14.1674 8.47839 18.0289 8.03673C18.039 8.03557 18.0492 8.03456 18.0594 8.03372ZM18.2409 10.0255C15.1503 10.3853 12.6683 12.5855 12.1599 15.3842C12.1573 15.3985 12.1544 15.4127 12.1511 15.4269C11.7274 17.2929 12.2249 19.0977 13.2846 20.6017L18.3649 27.6798C18.6356 28.0668 19.3108 28.1575 19.7361 27.6456L24.789 20.6056C25.571 19.4725 25.9977 18.1813 26 16.8099C25.9074 12.8316 22.4499 9.68282 18.2409 10.0255Z" fill="black"/>
<path fill-rule="evenodd" clip-rule="evenodd" d="M19 14.9C17.9506 14.9 17.1 15.7507 17.1 16.8C17.1 17.8494 17.9506 18.7 19 18.7C20.0493 18.7 20.9 17.8494 20.9 16.8C20.9 15.7507 20.0493 14.9 19 14.9ZM15.1 16.8C15.1 14.6461 16.8461 12.9 19 12.9C21.1539 12.9 22.9 14.6461 22.9 16.8C22.9 18.9539 21.1539 20.7 19 20.7C16.8461 20.7 15.1 18.9539 15.1 16.8Z" fill="black"/>
<path fill-rule="evenodd" clip-rule="evenodd" d="M19 14.9C17.9506 14.9 17.1 15.7507 17.1 16.8C17.1 17.8494 17.9506 18.7 19 18.7C20.0493 18.7 20.9 17.8494 20.9 16.8C20.9 15.7507 20.0493 14.9 19 14.9ZM15.1 16.8C15.1 14.6461 16.8461 12.9 19 12.9C21.1539 12.9 22.9 14.6461 22.9 16.8C22.9 18.9539 21.1539 20.7 19 20.7C16.8461 20.7 15.1 18.9539 15.1 16.8Z" fill="black"/>
<path fill-rule="evenodd" clip-rule="evenodd" d="M19 14.9C17.9506 14.9 17.1 15.7507 17.1 16.8C17.1 17.8494 17.9506 18.7 19 18.7C20.0493 18.7 20.9 17.8494 20.9 16.8C20.9 15.7507 20.0493 14.9 19 14.9ZM15.1 16.8C15.1 14.6461 16.8461 12.9 19 12.9C21.1539 12.9 22.9 14.6461 22.9 16.8C22.9 18.9539 21.1539 20.7 19 20.7C16.8461 20.7 15.1 18.9539 15.1 16.8Z" fill="black" fill-opacity="0.2"/>
</svg>
