<svg xmlns="http://www.w3.org/2000/svg" version="1.1" xmlns:xlink="http://www.w3.org/1999/xlink" xmlns:svgjs="http://svgjs.com/svgjs" width="512" height="512" x="0" y="0" viewBox="0 0 64 64" style="enable-background:new 0 0 512 512" xml:space="preserve" class=""><g><path d="M6.853 38.537a1 1 0 0 1-.945-.676 27.646 27.646 0 0 1-1.495-8.974c0-3.494.638-6.875 1.895-10.052 3.774-9.628 12.484-16.283 22.73-17.364A27.347 27.347 0 0 1 32 1.312a27.49 27.49 0 0 1 15.264 4.607 27.945 27.945 0 0 1 6.841 6.471 27.057 27.057 0 0 1 4.373 8.798 27.313 27.313 0 0 1 1.098 7.699c0 3.078-.509 6.095-1.511 8.967a1.007 1.007 0 0 1-1.124.654 3.914 3.914 0 0 0-.7-.061H7.76c-.258 0-.491.022-.693.066a.924.924 0 0 1-.214.024zM32 3.312c-.932 0-1.856.05-2.748.147-9.504 1.003-17.582 7.176-21.085 16.11a25.205 25.205 0 0 0-1.755 9.318c0 2.569.383 5.11 1.14 7.564a7.11 7.11 0 0 1 .208-.003h48.48l.183.002a25.179 25.179 0 0 0 1.152-7.563c0-2.438-.343-4.841-1.02-7.144a25.067 25.067 0 0 0-4.052-8.155 25.911 25.911 0 0 0-6.349-6.005A25.496 25.496 0 0 0 32 3.312z" fill="#000000" data-original="#000000" class=""></path><path d="M20.021 38.448h-5.69a1 1 0 0 1-.985-.829 16.687 16.687 0 0 1-.203-1.613c-.148-1.956-1.405-3.488-2.434-4.429a3.583 3.583 0 0 1-1.148-3.053c.397-3.537-.61-6.422-2.994-8.578a1 1 0 0 1-.26-1.107C10.082 9.207 18.792 2.552 29.038 1.471c.22-.022.454.031.646.154a39.83 39.83 0 0 1 5.027 3.862c.626.573.894 1.404.722 2.228a2.311 2.311 0 0 1-1.528 1.731l-.002.001c-1.081.366-2.42.477-3.975.329-1.671-.168-3.037.372-4.081 1.603-.753.9-1.854 1.408-3.097 1.425-1.465.012-3.715.652-6.153 3.638-.797.975-1.084 1.893-.879 2.808.515 2.299 3.879 4.063 4.898 4.549.24.12.523.215.838.282 2.098.487 3.799 1.574 4.938 3.147a3.768 3.768 0 0 1-1.007 5.342c-2.108 1.375-3.602 3.14-4.436 5.245a.997.997 0 0 1-.928.633zm-4.827-2h4.167c1.023-2.218 2.681-4.084 4.936-5.554a1.77 1.77 0 0 0 .768-1.16 1.71 1.71 0 0 0-.29-1.331c-.865-1.194-2.129-1.991-3.756-2.37a5.405 5.405 0 0 1-1.279-.437c-1.554-.741-5.28-2.816-5.973-5.91-.343-1.532.089-3.05 1.282-4.51 2.929-3.586 5.793-4.358 7.681-4.373.454-.006 1.104-.135 1.589-.713 1.032-1.217 2.859-2.602 5.805-2.306 1.574.151 2.576-.043 3.136-.232a.321.321 0 0 0 .218-.247.358.358 0 0 0-.11-.339 38.065 38.065 0 0 0-4.469-3.468C19.77 4.588 12.001 10.459 8.42 18.952c1.837 1.872 3.669 4.994 3.13 9.791a1.6 1.6 0 0 0 .502 1.35c1.304 1.193 2.889 3.153 3.086 5.76.012.197.032.395.056.595zM33.582 8.5h.01zM57.121 38.524c-.06 0-.12-.005-.181-.016a3.914 3.914 0 0 0-.7-.061H39.489a1 1 0 0 1-.993-.881 3.51 3.51 0 0 1 2.05-3.633.88.88 0 0 1 .121-.045.4.4 0 0 0 .183-.291.426.426 0 0 0-.161-.394c-.708-.57-1.492-1.328-2.458-2.376a5.45 5.45 0 0 1-1.433-4.051 5.61 5.61 0 0 1 1.939-3.906 31.624 31.624 0 0 1 6.197-4.197 2.805 2.805 0 0 1 2.419-.071 2.813 2.813 0 0 1 1.571 1.844c.057.233.135.428.212.63a3.34 3.34 0 0 0 2.198 2.04 3.756 3.756 0 0 0 3.251-.54 21.347 21.347 0 0 0 2.243-1.841 1.002 1.002 0 0 1 1.646.446 27.37 27.37 0 0 1 1.1 7.707c0 3.078-.509 6.095-1.511 8.967a.998.998 0 0 1-.942.669zm-16.477-2.076H56.24l.183.002a25.179 25.179 0 0 0 1.152-7.563c0-1.899-.208-3.778-.62-5.605-.39.317-.792.625-1.205.919a5.771 5.771 0 0 1-4.989.83c-1.615-.484-2.879-1.641-3.466-3.173a7.408 7.408 0 0 1-.308-.915.79.79 0 0 0-.447-.513.797.797 0 0 0-.693.024c-1.454.755-3.65 2.056-5.803 3.931a3.558 3.558 0 0 0-1.25 2.512 3.466 3.466 0 0 0 .908 2.577c.896.973 1.612 1.667 2.252 2.182.663.549.988 1.369.879 2.201a2.41 2.41 0 0 1-1.396 1.884.948.948 0 0 1-.151.056 1.516 1.516 0 0 0-.642.651zM50.241 14.369c-2.901 0-5.485-.889-7.337-1.772a2.28 2.28 0 0 1-.219-3.994c1.07-.642 2.189-1.508 3.342-2.584a1 1 0 0 1 1.237-.101 27.845 27.845 0 0 1 6.844 6.476 1 1 0 0 1-.555 1.57 13.54 13.54 0 0 1-3.312.405zm-3.445-6.347c-1.05.926-2.077 1.692-3.064 2.285a.269.269 0 0 0-.122.25.268.268 0 0 0 .159.236c1.905.909 4.682 1.83 7.708 1.511a25.815 25.815 0 0 0-4.681-4.282z" fill="#000000" data-original="#000000" class=""></path><path d="M56.24 62.688H7.76a6.111 6.111 0 0 1-6.104-6.104V42.551a6.078 6.078 0 0 1 5.023-5.999c.304-.067.68-.104 1.08-.104h48.48a6.093 6.093 0 0 1 6.104 6.103v14.034a6.11 6.11 0 0 1-6.103 6.103zM7.76 38.448c-.258 0-.491.022-.693.066-1.992.353-3.41 2.047-3.41 4.037v14.034a4.109 4.109 0 0 0 4.104 4.104h48.48a4.109 4.109 0 0 0 4.104-4.104V42.551a4.1 4.1 0 0 0-4.103-4.104H7.76z" fill="#000000" data-original="#000000" class=""></path><path d="m12.613 45.232 4.268 6.459v-6.519c0-.424.091-.741.273-.953s.427-.318.736-.318c.319 0 .571.106.755.318s.277.53.277.953v8.619c0 .962-.399 1.443-1.196 1.443-.199 0-.379-.029-.538-.086s-.309-.148-.449-.273-.269-.27-.389-.437-.239-.338-.359-.512l-4.164-6.384v6.421c0 .419-.097.735-.292.949a.965.965 0 0 1-.748.321c-.314 0-.566-.108-.755-.325s-.284-.532-.284-.946v-8.455c0-.359.04-.64.12-.845.095-.224.252-.407.471-.549s.456-.213.71-.213c.199 0 .37.032.512.097s.267.152.374.262.217.252.329.426l.349.547zM28.573 45.8h-5.001v2.691h4.605c.339 0 .592.076.759.228s.25.353.25.602-.082.452-.247.609c-.164.157-.419.235-.762.235h-4.605v3.117h5.173c.349 0 .612.081.789.243s.265.378.265.647c0 .259-.088.47-.265.632s-.44.243-.789.243h-6.033c-.483 0-.831-.107-1.043-.321s-.318-.561-.318-1.039v-8.238c0-.319.047-.579.142-.781s.243-.349.445-.441.46-.138.774-.138h5.861c.354 0 .617.078.789.235s.258.363.258.617a.804.804 0 0 1-.258.624c-.173.157-.436.235-.789.235zM39.322 53.32l-1.772-6.57-1.794 6.571c-.14.498-.25.856-.333 1.073-.082.217-.226.411-.43.583s-.476.258-.815.258c-.274 0-.5-.051-.677-.153s-.32-.247-.43-.434-.199-.409-.269-.665c-.07-.257-.132-.495-.187-.714l-1.824-7.378c-.11-.429-.164-.755-.164-.979 0-.284.1-.523.299-.718a1.02 1.02 0 0 1 .74-.292c.404 0 .675.13.815.389s.262.635.366 1.129l1.435 6.399 1.607-5.988c.12-.458.227-.807.321-1.047s.249-.446.463-.62.506-.262.875-.262c.374 0 .664.091.871.273s.35.38.43.594.187.568.321 1.062l1.622 5.988 1.435-6.399c.07-.334.136-.596.198-.785s.169-.359.321-.508c.152-.15.373-.224.662-.224s.534.096.736.288.303.432.303.721c0 .204-.055.531-.164.979l-1.824 7.378c-.125.498-.228.863-.31 1.095s-.222.435-.419.609-.475.262-.834.262c-.339 0-.61-.085-.815-.254-.204-.169-.346-.36-.426-.572s-.188-.575-.333-1.089zM54.251 51.758c0 .663-.171 1.258-.512 1.787s-.841.942-1.499 1.241-1.438.449-2.34.449c-1.081 0-1.974-.204-2.676-.613a3.572 3.572 0 0 1-1.215-1.177c-.311-.491-.467-.968-.467-1.432 0-.269.093-.5.28-.691a.954.954 0 0 1 .714-.288c.234 0 .432.075.594.224.162.15.3.371.415.665.14.349.29.64.452.875.162.234.39.427.684.579s.68.228 1.159.228c.658 0 1.192-.153 1.603-.46.411-.306.617-.689.617-1.147 0-.364-.111-.659-.333-.886s-.508-.4-.86-.52c-.351-.12-.821-.247-1.409-.381-.787-.184-1.446-.4-1.977-.647s-.952-.583-1.263-1.009-.467-.956-.467-1.589c0-.603.164-1.139.493-1.607s.805-.829 1.428-1.08c.623-.252 1.356-.378 2.198-.378.673 0 1.255.083 1.746.25s.898.389 1.222.665c.324.277.561.567.71.871.15.304.224.601.224.89 0 .264-.093.502-.28.714s-.42.318-.699.318c-.254 0-.447-.064-.579-.191s-.275-.335-.43-.624c-.199-.414-.439-.736-.718-.968s-.728-.348-1.346-.348c-.573 0-1.035.126-1.387.378-.351.252-.527.554-.527.908 0 .219.06.409.179.568.12.159.284.297.493.411.209.115.421.204.635.269s.568.159 1.062.284c.618.145 1.177.304 1.678.478s.927.386 1.278.635.625.564.822.946c.199.383.298.85.298 1.403z" fill="#000000" data-original="#000000" class=""></path></g></svg>