<svg width="20" height="16" viewBox="0 0 20 16" fill="none" xmlns="http://www.w3.org/2000/svg">
<g clip-path="url(#clip0_1353_1986)">
<path d="M11.782 5.46338L11.6275 5.61781L11.8271 5.70652C13.0337 6.24279 13.738 7.23691 13.738 8.34724V10.3611C13.738 10.5262 13.6735 10.6571 13.5628 10.7494C13.4497 10.8436 13.2779 10.9056 13.0547 10.9056C12.8315 10.9056 12.6597 10.8436 12.5465 10.7494C12.4359 10.6571 12.3714 10.5262 12.3714 10.3611V8.34724C12.3714 7.57871 11.8218 6.91094 11.124 6.54752L11.1156 6.54317L11.1068 6.53989C10.3234 6.24975 9.45743 6.25097 8.68121 6.46658L8.6812 6.46654L8.67785 6.46756C7.71548 6.75919 7.07135 7.5006 7.07135 8.34724V10.2917C7.07135 10.4568 7.00685 10.5877 6.89616 10.6799C6.78305 10.7742 6.61125 10.8361 6.38802 10.8361C6.16479 10.8361 5.99299 10.7742 5.87988 10.6799C5.7692 10.5877 5.70469 10.4568 5.70469 10.2917V8.34724C5.70469 7.23691 6.40899 6.24279 7.61561 5.70652L7.81519 5.61781L7.66075 5.46338C7.26448 5.0671 7.03802 4.61713 7.03802 4.11111C7.03802 2.89896 8.19409 1.9 9.72135 1.9C11.2486 1.9 12.4047 2.89896 12.4047 4.11111C12.4047 4.61713 12.1782 5.0671 11.782 5.46338ZM11.038 4.11111C11.038 3.44827 10.4441 2.98889 9.72135 2.98889C9.36369 2.98889 9.03814 3.08185 8.79802 3.26194C8.55446 3.44462 8.40469 3.71359 8.40469 4.04167C8.40469 4.70451 8.99861 5.16389 9.72135 5.16389C10.079 5.16389 10.4046 5.07092 10.6447 4.89083C10.8882 4.70816 11.038 4.43919 11.038 4.11111Z" fill="black" stroke="#F5F5F5" stroke-width="0.3"/>
<path d="M10.9833 11.1778C10.9833 11.0128 11.0478 10.8818 11.1585 10.7896C11.2716 10.6953 11.4434 10.6334 11.6667 10.6334C12.0908 10.6334 12.35 10.9203 12.35 11.2473V14.3724C12.35 15.3008 11.3678 16.1667 10 16.1667C8.63217 16.1667 7.65 15.3008 7.65 14.3724V11.2473C7.65 11.0822 7.71451 10.9513 7.82519 10.859C7.93831 10.7648 8.11011 10.7028 8.33333 10.7028C8.55656 10.7028 8.72836 10.7648 8.84147 10.859C8.95216 10.9513 9.01667 11.0822 9.01667 11.2473V14.3724C9.01667 14.5734 9.13607 14.7531 9.30866 14.8763C9.48316 15.001 9.72295 15.0778 10 15.0778C10.5448 15.0778 10.9833 14.7664 10.9833 14.3028V11.1778Z" fill="black" stroke="#F5F5F5" stroke-width="0.3"/>
</g>
<defs>
<clipPath id="clip0_1353_1986">
<rect width="20" height="16.6667" fill="white" transform="translate(0 -0.333252)"/>
</clipPath>
</defs>
</svg>
