<svg width="20" height="16" viewBox="0 0 20 16" fill="none" xmlns="http://www.w3.org/2000/svg">
<mask id="path-1-inside-1_1353_1963" fill="white">
<path fill-rule="evenodd" clip-rule="evenodd" d="M10 4.52783C8.61925 4.52783 7.5 5.46058 7.5 6.61117C7.5 7.76179 8.61925 8.6945 10 8.6945C11.3807 8.6945 12.5 7.76179 12.5 6.61117C12.5 5.46058 11.3807 4.52783 10 4.52783ZM8.33333 6.61117C8.33333 5.8441 9.0795 5.22228 10 5.22228C10.9205 5.22228 11.6667 5.8441 11.6667 6.61117C11.6667 7.37825 10.9205 8.00005 10 8.00005C9.0795 8.00005 8.33333 7.37825 8.33333 6.61117Z"/>
</mask>
<path fill-rule="evenodd" clip-rule="evenodd" d="M10 4.52783C8.61925 4.52783 7.5 5.46058 7.5 6.61117C7.5 7.76179 8.61925 8.6945 10 8.6945C11.3807 8.6945 12.5 7.76179 12.5 6.61117C12.5 5.46058 11.3807 4.52783 10 4.52783ZM8.33333 6.61117C8.33333 5.8441 9.0795 5.22228 10 5.22228C10.9205 5.22228 11.6667 5.8441 11.6667 6.61117C11.6667 7.37825 10.9205 8.00005 10 8.00005C9.0795 8.00005 8.33333 7.37825 8.33333 6.61117Z" fill="#263539"/>
<path d="M10 3.52783C8.24541 3.52783 6.5 4.74533 6.5 6.61117H8.5C8.5 6.17582 8.99309 5.52783 10 5.52783V3.52783ZM6.5 6.61117C6.5 8.47705 8.24542 9.6945 10 9.6945V7.6945C8.99308 7.6945 8.5 7.04653 8.5 6.61117H6.5ZM10 9.6945C11.7546 9.6945 13.5 8.47705 13.5 6.61117H11.5C11.5 7.04653 11.0069 7.6945 10 7.6945V9.6945ZM13.5 6.61117C13.5 4.74533 11.7546 3.52783 10 3.52783V5.52783C11.0069 5.52783 11.5 6.17582 11.5 6.61117H13.5ZM9.33333 6.61117C9.33333 6.56941 9.35106 6.48946 9.46167 6.39729C9.57441 6.30334 9.76149 6.22228 10 6.22228V4.22228C8.70566 4.22228 7.33333 5.12885 7.33333 6.61117H9.33333ZM10 6.22228C10.2385 6.22228 10.4256 6.30334 10.5383 6.39729C10.6489 6.48946 10.6667 6.56941 10.6667 6.61117H12.6667C12.6667 5.12885 11.2943 4.22228 10 4.22228V6.22228ZM10.6667 6.61117C10.6667 6.65293 10.6489 6.73288 10.5383 6.82504C10.4256 6.91899 10.2385 7.00005 10 7.00005V9.00005C11.2943 9.00005 12.6667 8.09351 12.6667 6.61117H10.6667ZM10 7.00005C9.76149 7.00005 9.5744 6.91899 9.46166 6.82504C9.35107 6.73288 9.33333 6.65293 9.33333 6.61117H7.33333C7.33333 8.09351 8.70567 9.00005 10 9.00005V7.00005Z" fill="black" mask="url(#path-1-inside-1_1353_1963)"/>
<mask id="path-3-inside-2_1353_1963" fill="white">
<path fill-rule="evenodd" clip-rule="evenodd" d="M10 1.40283C6.54822 1.40283 3.75 3.73468 3.75 6.61117C3.75 7.55637 4.14523 8.52464 4.70822 9.42943C5.2731 10.3373 6.02142 11.2044 6.7617 11.9535C7.50299 12.7035 8.24312 13.3423 8.7975 13.7932C9.07492 14.0189 9.3065 14.1981 9.46925 14.3213C9.55058 14.3829 9.61483 14.4305 9.65908 14.463C9.68117 14.4792 9.69825 14.4917 9.71 14.5001C9.71592 14.5044 9.72042 14.5076 9.72358 14.5099L9.72725 14.5126L9.72867 14.5135C9.72875 14.5136 9.72883 14.5137 10 14.2501L9.72867 14.5135L10 14.7073L10.2712 14.5137L10 14.2501C10.2712 14.5137 10.2711 14.5137 10.2712 14.5137L10.2727 14.5126L10.2764 14.5099C10.2796 14.5076 10.2841 14.5044 10.29 14.5001C10.3017 14.4917 10.3188 14.4792 10.3409 14.463C10.3852 14.4305 10.4494 14.3829 10.5307 14.3213C10.6935 14.1981 10.9251 14.0189 11.2025 13.7932C11.7569 13.3423 12.497 12.7035 13.2383 11.9535C13.9786 11.2044 14.7269 10.3373 15.2917 9.42943C15.8547 8.52464 16.25 7.55637 16.25 6.61117C16.25 3.73468 13.4517 1.40283 10 1.40283ZM10.6204 13.2963C10.3675 13.5021 10.1544 13.6675 10 13.7848C9.84558 13.6675 9.6325 13.5021 9.37958 13.2963C8.84025 12.8575 8.12201 12.2376 7.40497 11.5119C6.68692 10.7853 5.9769 9.95971 5.44802 9.10978C4.91727 8.25672 4.58333 7.40207 4.58333 6.61117C4.58333 4.11821 7.00846 2.09728 10 2.09728C12.9916 2.09728 15.4167 4.11821 15.4167 6.61117C15.4167 7.40207 15.0827 8.25672 14.552 9.10978C14.0231 9.95971 13.3131 10.7853 12.595 11.5119C11.878 12.2376 11.1597 12.8575 10.6204 13.2963Z"/>
</mask>
<path fill-rule="evenodd" clip-rule="evenodd" d="M10 1.40283C6.54822 1.40283 3.75 3.73468 3.75 6.61117C3.75 7.55637 4.14523 8.52464 4.70822 9.42943C5.2731 10.3373 6.02142 11.2044 6.7617 11.9535C7.50299 12.7035 8.24312 13.3423 8.7975 13.7932C9.07492 14.0189 9.3065 14.1981 9.46925 14.3213C9.55058 14.3829 9.61483 14.4305 9.65908 14.463C9.68117 14.4792 9.69825 14.4917 9.71 14.5001C9.71592 14.5044 9.72042 14.5076 9.72358 14.5099L9.72725 14.5126L9.72867 14.5135C9.72875 14.5136 9.72883 14.5137 10 14.2501L9.72867 14.5135L10 14.7073L10.2712 14.5137L10 14.2501C10.2712 14.5137 10.2711 14.5137 10.2712 14.5137L10.2727 14.5126L10.2764 14.5099C10.2796 14.5076 10.2841 14.5044 10.29 14.5001C10.3017 14.4917 10.3188 14.4792 10.3409 14.463C10.3852 14.4305 10.4494 14.3829 10.5307 14.3213C10.6935 14.1981 10.9251 14.0189 11.2025 13.7932C11.7569 13.3423 12.497 12.7035 13.2383 11.9535C13.9786 11.2044 14.7269 10.3373 15.2917 9.42943C15.8547 8.52464 16.25 7.55637 16.25 6.61117C16.25 3.73468 13.4517 1.40283 10 1.40283ZM10.6204 13.2963C10.3675 13.5021 10.1544 13.6675 10 13.7848C9.84558 13.6675 9.6325 13.5021 9.37958 13.2963C8.84025 12.8575 8.12201 12.2376 7.40497 11.5119C6.68692 10.7853 5.9769 9.95971 5.44802 9.10978C4.91727 8.25672 4.58333 7.40207 4.58333 6.61117C4.58333 4.11821 7.00846 2.09728 10 2.09728C12.9916 2.09728 15.4167 4.11821 15.4167 6.61117C15.4167 7.40207 15.0827 8.25672 14.552 9.10978C14.0231 9.95971 13.3131 10.7853 12.595 11.5119C11.878 12.2376 11.1597 12.8575 10.6204 13.2963Z" fill="#263539"/>
<path d="M4.70822 9.42943L5.55728 8.90113L5.55728 8.90112L4.70822 9.42943ZM6.7617 11.9535L6.05042 12.6564L6.05044 12.6564L6.7617 11.9535ZM8.7975 13.7932L9.42859 13.0175L9.42855 13.0175L8.7975 13.7932ZM9.46925 14.3213L10.073 13.5241L10.0728 13.524L9.46925 14.3213ZM9.65908 14.463L9.06713 15.2689L9.06805 15.2696L9.65908 14.463ZM9.71 14.5001L9.12514 15.3113L9.12786 15.3132L9.71 14.5001ZM9.72358 14.5099L9.13731 15.32L9.13952 15.3216L9.72358 14.5099ZM9.72725 14.5126L9.14319 15.3243L9.15227 15.3308L9.1615 15.3371L9.72725 14.5126ZM10 14.2501L10.697 13.533L10.0004 12.8558L9.30336 13.5326L10 14.2501ZM10 14.7073L9.41874 15.5211L9.99997 15.9362L10.5812 15.5211L10 14.7073ZM10.2727 14.5126L10.8473 15.3311L10.8568 15.3243L10.2727 14.5126ZM10.2764 14.5099L10.8605 15.3216L10.8627 15.32L10.2764 14.5099ZM10.29 14.5001L10.8721 15.3132L10.8749 15.3113L10.29 14.5001ZM10.3409 14.463L10.9319 15.2696L10.9329 15.2689L10.3409 14.463ZM10.5307 14.3213L9.92721 13.524L9.92701 13.5241L10.5307 14.3213ZM11.2025 13.7932L10.5715 13.0175L10.5714 13.0175L11.2025 13.7932ZM13.2383 11.9535L13.9496 12.6564L13.9496 12.6564L13.2383 11.9535ZM15.2917 9.42943L14.4427 8.90111L14.4427 8.90116L15.2917 9.42943ZM10.6204 13.2963L11.2515 14.072L11.2515 14.072L10.6204 13.2963ZM10 13.7848L9.3949 14.581L10 15.0409L10.6051 14.581L10 13.7848ZM9.37958 13.2963L8.74846 14.072L8.74849 14.072L9.37958 13.2963ZM7.40497 11.5119L8.11627 10.809L8.11624 10.809L7.40497 11.5119ZM5.44802 9.10978L4.59895 9.63805L4.59898 9.6381L5.44802 9.10978ZM14.552 9.10978L15.401 9.63813L15.4011 9.63805L14.552 9.10978ZM12.595 11.5119L11.8837 10.809L11.8837 10.8091L12.595 11.5119ZM10 0.402832C6.17439 0.402832 2.75 3.01942 2.75 6.61117H4.75C4.75 4.44994 6.92204 2.40283 10 2.40283V0.402832ZM2.75 6.61117C2.75 7.82292 3.25051 8.97955 3.85917 9.95774L5.55728 8.90112C5.03996 8.06973 4.75 7.28983 4.75 6.61117H2.75ZM3.85916 9.95773C4.47767 10.9518 5.2812 11.878 6.05042 12.6564L7.47298 11.2505C6.76164 10.5307 6.06853 9.72279 5.55728 8.90113L3.85916 9.95773ZM6.05044 12.6564C6.82428 13.4394 7.59322 14.1027 8.16645 14.569L9.42855 13.0175C8.89303 12.5819 8.18171 11.9677 7.47296 11.2505L6.05044 12.6564ZM8.16641 14.569C8.4541 14.803 8.69499 14.9894 8.86571 15.1186L10.0728 13.524C9.91801 13.4068 9.69573 13.2349 9.42859 13.0175L8.16641 14.569ZM8.86551 15.1185C8.95144 15.1836 9.01969 15.2341 9.06713 15.2689L10.251 13.657C10.21 13.6268 10.1497 13.5822 10.073 13.5241L8.86551 15.1185ZM9.06805 15.2696C9.08919 15.2851 9.10965 15.3001 9.12514 15.3113L10.2949 13.689C10.2869 13.6832 10.2731 13.6732 10.2501 13.6563L9.06805 15.2696ZM9.12786 15.3132C9.13125 15.3156 9.13342 15.3172 9.13731 15.32L10.3099 13.6998C10.3074 13.698 10.3006 13.6931 10.2921 13.687L9.12786 15.3132ZM9.13952 15.3216L9.14319 15.3243L10.3113 13.7008L10.3076 13.6982L9.13952 15.3216ZM9.1615 15.3371L9.16292 15.3381L10.2944 13.6889L10.293 13.688L9.1615 15.3371ZM9.08848 15.2817C9.07753 15.2726 9.15308 15.3398 9.25752 15.3956C9.38415 15.4632 9.53292 15.5075 9.69482 15.513C9.96929 15.5223 10.1644 15.4147 10.2041 15.3933C10.2685 15.3585 10.3144 15.3242 10.3293 15.3131C10.3494 15.298 10.3647 15.2852 10.3724 15.2788C10.3877 15.2659 10.3993 15.2553 10.4026 15.2523C10.4075 15.2479 10.4114 15.2443 10.4133 15.2424C10.4196 15.2365 10.4254 15.2309 10.4269 15.2295C10.4326 15.224 10.4423 15.2146 10.4591 15.1983C10.4934 15.165 10.5615 15.0988 10.697 14.9671L9.30295 13.533C9.16733 13.6649 9.09982 13.7305 9.06624 13.7631C9.04912 13.7797 9.04182 13.7867 9.03899 13.7895C9.03623 13.7921 9.03994 13.7885 9.04514 13.7836C9.04683 13.7821 9.05047 13.7786 9.05519 13.7743C9.05834 13.7715 9.06984 13.761 9.08512 13.7481C9.09271 13.7418 9.10804 13.729 9.12815 13.7139C9.14296 13.7028 9.1889 13.6685 9.25329 13.6337C9.2929 13.6123 9.48806 13.5048 9.76252 13.5141C9.92442 13.5196 10.0732 13.5638 10.1998 13.6315C10.3043 13.6873 10.3798 13.7544 10.3689 13.7453L9.08848 15.2817ZM9.30336 13.5326L9.03203 13.7961L10.4253 15.2309L10.6966 14.9675L9.30336 13.5326ZM9.14741 15.3272L9.41874 15.5211L10.5813 13.8936L10.3099 13.6998L9.14741 15.3272ZM10.5812 15.5211L10.8524 15.3274L9.68995 13.6999L9.41878 13.8936L10.5812 15.5211ZM10.9682 13.7966L10.697 13.533L9.30295 14.9671L9.57412 15.2307L10.9682 13.7966ZM9.30295 14.9671C9.43845 15.0988 9.50615 15.1647 9.53999 15.1976C9.55661 15.2137 9.56569 15.2226 9.57046 15.2272C9.57167 15.2284 9.57625 15.2328 9.58075 15.2371C9.58218 15.2385 9.58525 15.2414 9.58915 15.245C9.59157 15.2473 9.60156 15.2566 9.61469 15.268C9.62117 15.2737 9.63488 15.2855 9.65289 15.2996C9.66557 15.3096 9.70841 15.3432 9.76856 15.3782C9.79995 15.3964 9.99586 15.5152 10.2766 15.5137C10.6628 15.5116 10.906 15.2863 10.9114 15.2819L9.63098 13.7454C9.63099 13.7454 9.63612 13.7412 9.64128 13.737C9.64649 13.7328 9.66227 13.7204 9.67292 13.7124C9.7009 13.6915 9.74599 13.66 9.80555 13.6287C9.93914 13.5584 10.0961 13.5146 10.2657 13.5137C10.5465 13.5122 10.7424 13.6309 10.7737 13.6491C10.8339 13.6841 10.8767 13.7177 10.8894 13.7277C10.9074 13.7418 10.921 13.7536 10.9275 13.7592C10.9405 13.7706 10.9504 13.7798 10.9527 13.7819C10.9564 13.7854 10.9593 13.7881 10.9605 13.7892C10.9639 13.7925 10.9664 13.7949 10.9633 13.792C10.9596 13.7884 10.9517 13.7807 10.9345 13.7639C10.9006 13.7309 10.8327 13.6649 10.697 13.533L9.30295 14.9671ZM10.8457 15.3321L10.8473 15.331L9.6982 13.6941L9.69662 13.6952L10.8457 15.3321ZM10.8568 15.3243L10.8605 15.3216L9.69235 13.6982L9.68869 13.7008L10.8568 15.3243ZM10.8627 15.32C10.8666 15.3172 10.8687 15.3156 10.8721 15.3132L9.70786 13.687C9.69942 13.6931 9.69259 13.698 9.69015 13.6998L10.8627 15.32ZM10.8749 15.3113C10.8904 15.3001 10.9108 15.2851 10.9319 15.2696L9.74988 13.6563C9.72686 13.6732 9.71315 13.6832 9.70514 13.689L10.8749 15.3113ZM10.9329 15.2689C10.9803 15.2341 11.0486 15.1836 11.1345 15.1185L9.92701 13.5241C9.85027 13.5822 9.79003 13.6268 9.74896 13.657L10.9329 15.2689ZM11.1343 15.1186C11.305 14.9894 11.5459 14.803 11.8336 14.569L10.5714 13.0175C10.3043 13.2349 10.082 13.4068 9.92721 13.524L11.1343 15.1186ZM11.8335 14.569C12.4068 14.1027 13.1757 13.4394 13.9496 12.6564L12.5271 11.2505C11.8183 11.9677 11.107 12.5819 10.5715 13.0175L11.8335 14.569ZM13.9496 12.6564C14.7188 11.878 15.5224 10.9518 16.1408 9.9577L14.4427 8.90116C13.9315 9.7228 13.2384 10.5307 12.527 11.2506L13.9496 12.6564ZM16.1408 9.95774C16.7495 8.97956 17.25 7.82293 17.25 6.61117H15.25C15.25 7.28982 14.96 8.06972 14.4427 8.90111L16.1408 9.95774ZM17.25 6.61117C17.25 3.01942 13.8256 0.402832 10 0.402832V2.40283C13.0779 2.40283 15.25 4.44994 15.25 6.61117H17.25ZM9.98933 12.5206C9.74611 12.7185 9.5418 12.877 9.3949 12.9887L10.6051 14.581C10.767 14.4579 10.9889 14.2857 11.2515 14.072L9.98933 12.5206ZM10.6051 12.9887C10.4582 12.877 10.2539 12.7185 10.0107 12.5206L8.74849 14.072C9.01111 14.2857 9.23297 14.4579 9.3949 14.581L10.6051 12.9887ZM10.0107 12.5206C9.49011 12.097 8.8007 11.5017 8.11627 10.809L6.69366 12.2148C7.44331 12.9734 8.19039 13.6179 8.74846 14.072L10.0107 12.5206ZM8.11624 10.809C7.42712 10.1117 6.77232 9.3452 6.29707 8.58145L4.59898 9.6381C5.18148 10.5742 5.94671 11.459 6.69369 12.2148L8.11624 10.809ZM6.2971 8.5815C5.81198 7.80179 5.58333 7.1355 5.58333 6.61117H3.58333C3.58333 7.66863 4.02256 8.71165 4.59895 9.63805L6.2971 8.5815ZM5.58333 6.61117C5.58333 4.83347 7.38228 3.09728 10 3.09728V1.09728C6.63463 1.09728 3.58333 3.40296 3.58333 6.61117H5.58333ZM10 3.09728C12.6178 3.09728 14.4167 4.83347 14.4167 6.61117H16.4167C16.4167 3.40296 13.3654 1.09728 10 1.09728V3.09728ZM14.4167 6.61117C14.4167 7.13552 14.188 7.80181 13.7029 8.5815L15.4011 9.63805C15.9775 8.71163 16.4167 7.66862 16.4167 6.61117H14.4167ZM13.703 8.58142C13.2277 9.3452 12.5729 10.1117 11.8837 10.809L13.3063 12.2149C14.0533 11.459 14.8185 10.5742 15.401 9.63813L13.703 8.58142ZM11.8837 10.8091C11.1993 11.5017 10.5099 12.097 9.98929 12.5206L11.2515 14.072C11.8096 13.6179 12.5567 12.9734 13.3063 12.2148L11.8837 10.8091Z" fill="black" mask="url(#path-3-inside-2_1353_1963)"/>
</svg>
