<svg width="24" height="24" viewBox="0 0 24 24" fill="none" xmlns="http://www.w3.org/2000/svg">
<path fill-rule="evenodd" clip-rule="evenodd" d="M10.184 1.38605C11.3403 0.871316 12.6331 0.871316 13.7894 1.38605L13.807 1.39407L19.9895 4.29045C19.9974 4.29415 20.0053 4.29795 20.0131 4.30186C21.3982 4.99548 22.219 6.51976 21.9483 8.15385C21.4343 11.3441 19.8777 17.6329 14.1078 22.256L14.0971 22.2646L14.097 22.2645C12.8382 23.2452 11.1352 23.2452 9.87639 22.2645L9.86558 22.2561L9.86564 22.256C4.09429 17.6317 2.53839 11.341 2.02477 8.1515C2.0211 8.12874 2.01822 8.10586 2.01614 8.0829C1.88804 6.67157 2.51737 5.00836 4.08503 4.28974L10.1607 1.39675C10.1684 1.39309 10.1762 1.38952 10.184 1.38605ZM11.0081 3.20845L4.93773 6.09888L4.92217 6.10613C4.31053 6.38458 3.9467 7.0992 4.00533 7.8706C4.49454 10.8818 5.93876 16.5433 11.1103 20.6905C11.6441 21.1032 12.3293 21.1032 12.8631 20.6905C18.056 16.5262 19.4907 10.8351 19.9741 7.83352L19.9749 7.82836C20.101 7.0708 19.7303 6.40246 19.1278 6.09534L12.968 3.20961C12.3351 2.93052 11.6411 2.93013 11.0081 3.20845Z" fill="black" stroke="#F5F5F5" stroke-miterlimit="10" stroke-linecap="round" stroke-linejoin="round"/>
<path fill-rule="evenodd" clip-rule="evenodd" d="M16.599 7.19918C17.0412 7.52994 17.1316 8.15662 16.8009 8.5989L12.3137 14.5989C12.1258 14.8501 11.8309 14.9986 11.5172 15C11.2035 15.0013 10.9073 14.8554 10.7173 14.6058L8.20445 11.3058C7.86987 10.8664 7.95483 10.239 8.39423 9.9044C8.83363 9.56981 9.46107 9.65478 9.79566 10.0942L11.5057 12.3399L15.1992 7.40109C15.53 6.95881 16.1567 6.86841 16.599 7.19918Z" fill="black" stroke="#F5F5F5" stroke-miterlimit="10" stroke-linecap="round" stroke-linejoin="round"/>
</svg>
