<svg width="21" height="20" viewBox="0 0 21 20" fill="none" xmlns="http://www.w3.org/2000/svg">
<g clip-path="url(#clip0_1650_745)">
<path d="M6.38149 16.9163L6.34313 16.7798L6.20474 16.8104C5.3565 16.9977 4.47061 16.9093 3.67613 16.558C2.88164 16.2067 2.22008 15.6109 1.78781 14.8574C1.35554 14.1039 1.17515 13.2321 1.27293 12.369C1.3707 11.5058 1.74152 10.6964 2.33137 10.0587L2.42777 9.95448L2.32901 9.8525C-0.403432 7.03086 2.34411 2.14172 6.21194 3.14455L6.35151 3.18074L6.39318 3.0427C6.64323 2.21451 7.15326 1.48881 7.84779 0.973004C8.54233 0.457197 9.38447 0.178687 10.2496 0.178687C11.1147 0.178687 11.9568 0.457197 12.6514 0.973004C13.3459 1.48881 13.8559 2.21451 14.106 3.0427L14.1472 3.1793L14.2857 3.14493C18.2128 2.17037 20.8789 7.008 18.1646 9.88984L18.0666 9.99384L18.1657 10.0967C20.8978 12.933 18.1773 17.6835 14.295 16.8105L14.1562 16.7793L14.1177 16.9163C13.8805 17.7599 13.3743 18.503 12.6761 19.0326C11.9779 19.5622 11.1259 19.8492 10.2496 19.8502C9.37329 19.8492 8.52126 19.5622 7.82307 19.0326C7.12483 18.503 6.61865 17.7599 6.38149 16.9163ZM6.91613 15.1502H6.91625C7.09748 15.1502 7.27129 15.2222 7.39944 15.3503C7.52759 15.4785 7.59959 15.6523 7.59959 15.8335C7.59959 16.5363 7.87878 17.2104 8.37575 17.7074C8.87272 18.2043 9.54676 18.4835 10.2496 18.4835C10.9524 18.4835 11.6264 18.2043 12.1234 17.7074C12.6204 17.2104 12.8996 16.5363 12.8996 15.8335V15.8334C12.8995 15.7131 12.9313 15.5948 12.9916 15.4906C13.0519 15.3865 13.1387 15.3001 13.2432 15.2402C13.3476 15.1804 13.466 15.1492 13.5864 15.1498C13.7068 15.1504 13.8249 15.1828 13.9287 15.2437L13.9284 15.2441L13.9393 15.2494C15.465 15.9867 16.8784 15.2814 17.5312 14.1716C17.8574 13.617 17.9986 12.955 17.8681 12.3132C17.7369 11.6684 17.3341 11.0568 16.5964 10.604L16.5964 10.6039L16.5911 10.6009C16.4843 10.5412 16.3953 10.454 16.3334 10.3484C16.2715 10.2428 16.2388 10.1226 16.2388 10.0002C16.2388 9.87776 16.2715 9.75756 16.3334 9.65196C16.3953 9.54636 16.4843 9.45919 16.5911 9.39943L16.5912 9.39951L16.5957 9.39678C18.059 8.50941 18.1689 6.9099 17.533 5.76466C17.215 5.19184 16.7067 4.72277 16.0771 4.50621C15.4442 4.28848 14.7015 4.33052 13.9293 4.75902L13.9293 4.759L13.9266 4.76054C13.8226 4.82109 13.7044 4.85308 13.5841 4.85328C13.4637 4.85348 13.3454 4.82189 13.2412 4.76169C13.1369 4.70149 13.0505 4.61483 12.9905 4.51048C12.9305 4.40612 12.8991 4.28777 12.8996 4.16741V4.16685C12.8996 3.46403 12.6204 2.78999 12.1234 2.29302C11.6264 1.79604 10.9524 1.51685 10.2496 1.51685C9.54676 1.51685 8.87272 1.79604 8.37575 2.29302C7.87878 2.78999 7.59959 3.46403 7.59959 4.16685L7.59959 4.16715C7.59982 4.28721 7.56842 4.40522 7.50854 4.50928C7.44866 4.61335 7.36242 4.69981 7.2585 4.75994C7.15458 4.82008 7.03665 4.85177 6.91659 4.85183C6.79653 4.85189 6.67857 4.82031 6.57459 4.76028L6.57459 4.76027L6.57288 4.75931C5.80892 4.33149 5.06896 4.28845 4.43602 4.50322C3.80647 4.71683 3.2946 5.18132 2.97244 5.7493C2.65031 6.31725 2.51318 6.99687 2.64327 7.64793C2.77406 8.30244 3.17321 8.91835 3.90448 9.35404L3.90445 9.35409L3.90793 9.35604C4.01478 9.41591 4.10375 9.50317 4.16567 9.60885C4.22759 9.71452 4.26023 9.83479 4.26023 9.95727C4.26023 10.0797 4.22759 10.2 4.16567 10.3057C4.10375 10.4114 4.01478 10.4986 3.90793 10.5585L3.90783 10.5583L3.90119 10.5625C3.17156 11.023 2.77011 11.64 2.63635 12.2882C2.50317 12.9336 2.63762 13.5988 2.95852 14.1566C3.60124 15.274 5.00732 15.9808 6.55851 15.25L6.55877 15.2506L6.57037 15.2438C6.67525 15.1824 6.7946 15.1501 6.91613 15.1502ZM10.2496 13.1835C9.40531 13.1835 8.59562 12.8481 7.99863 12.2511C7.40164 11.6542 7.06625 10.8445 7.06625 10.0002C7.06625 9.15591 7.40164 8.34622 7.99863 7.74923C8.59562 7.15224 9.40531 6.81685 10.2496 6.81685C11.0939 6.81685 11.9036 7.15224 12.5005 7.74923C13.0975 8.34622 13.4329 9.15591 13.4329 10.0002C13.4329 10.8445 13.0975 11.6542 12.5005 12.2511C11.9036 12.8481 11.0939 13.1835 10.2496 13.1835ZM10.2496 8.18352C9.76778 8.18352 9.3057 8.37492 8.96501 8.71561C8.62432 9.0563 8.43292 9.51837 8.43292 10.0002C8.43292 10.482 8.62432 10.9441 8.96501 11.2848C9.3057 11.6255 9.76778 11.8168 10.2496 11.8168C10.7314 11.8168 11.1935 11.6255 11.5342 11.2848C11.8749 10.9441 12.0663 10.482 12.0663 10.0002C12.0663 9.51837 11.8749 9.0563 11.5342 8.71561C11.1935 8.37492 10.7314 8.18352 10.2496 8.18352Z" fill="#171717" stroke="#F5F5F5" stroke-width="0.3"/>
</g>
<defs>
<clipPath id="clip0_1650_745">
<rect width="20" height="20" fill="white" transform="translate(0.25)"/>
</clipPath>
</defs>
</svg>
