<svg width="37" height="37" viewBox="0 0 37 37" fill="none" xmlns="http://www.w3.org/2000/svg">
<circle cx="18.5" cy="18.5" r="17.75" stroke="black" stroke-width="1.5"/>
<path fill-rule="evenodd" clip-rule="evenodd" d="M14.25 13.631V12.4612C14.25 11.5949 14.8837 10.8591 15.7404 10.7306L16.9603 10.5476C18.3125 10.3447 19.6875 10.3447 21.0397 10.5476L22.2596 10.7306C23.1163 10.8591 23.75 11.5949 23.75 12.4612V13.631L25.464 13.7693C26.7764 13.8753 27.847 14.8634 28.0574 16.1631C28.5226 19.0357 28.5226 21.9643 28.0574 24.8369C27.847 26.1366 26.7764 27.1247 25.464 27.2307L23.5921 27.3818C20.5357 27.6285 17.4643 27.6285 14.4078 27.3818L12.5359 27.2307C11.2235 27.1247 10.153 26.1366 9.94252 24.8369C9.47733 21.9643 9.47733 19.0357 9.94252 16.1631C10.153 14.8634 11.2235 13.8753 12.5359 13.7693L14.25 13.631ZM17.1828 12.031C18.3875 11.8503 19.6125 11.8503 20.8172 12.031L22.0371 12.214C22.1595 12.2323 22.25 12.3374 22.25 12.4612V13.5258C20.0851 13.4023 17.9149 13.4023 15.75 13.5258V12.4612C15.75 12.3374 15.8405 12.2323 15.9629 12.214L17.1828 12.031ZM14.5285 15.1134C17.5047 14.8731 20.4953 14.8731 23.4714 15.1134L25.3433 15.2645C25.9675 15.3148 26.4766 15.7848 26.5767 16.4029C26.6391 16.7878 26.6926 17.1738 26.7372 17.5606C21.8596 19.9624 16.1404 19.9624 11.2628 17.5606C11.3074 17.1738 11.3609 16.7878 11.4232 16.4029C11.5233 15.7848 12.0325 15.3148 12.6566 15.2645L14.5285 15.1134ZM11.1289 19.1567C16.1283 21.4304 21.8717 21.4304 26.8711 19.1567C26.9664 20.9728 26.8683 22.7966 26.5767 24.5971C26.4766 25.2152 25.9675 25.6852 25.3433 25.7355L23.4714 25.8866C20.4953 26.1269 17.5047 26.1269 14.5285 25.8866L12.6566 25.7355C12.0325 25.6852 11.5233 25.2152 11.4232 24.5971C11.1317 22.7966 11.0335 20.9728 11.1289 19.1567Z" fill="black"/>
</svg>
