<svg width="24" height="24" viewBox="0 0 24 24" fill="none" xmlns="http://www.w3.org/2000/svg">
<path d="M18.7079 7.35899L18.7079 7.359L18.71 7.36105C19.4583 8.1082 19.8391 9.20605 19.7323 10.219L19.7309 10.2321V10.2452V18.8881C19.7309 20.5654 18.4252 22.0381 16.6675 22.0381H7.31339C5.55572 22.0381 4.25 20.5654 4.25 18.8881V5.68809C4.25 4.0107 5.55572 2.53809 7.31339 2.53809H12.3425C13.3314 2.53809 14.3305 2.90698 15.0841 3.65622L15.0925 3.66458L18.7079 7.35899ZM18.2368 10.095L18.2369 10.0944C18.3082 9.52652 18.0872 8.85712 17.6475 8.41995L17.6391 8.41158L14.0246 4.71806L14.0246 4.71804L14.0216 4.71509C13.5688 4.26765 12.9609 4.03809 12.3425 4.03809H7.31339C6.45974 4.03809 5.75 4.76148 5.75 5.68809V18.8881C5.75 19.8146 6.45973 20.5381 7.31339 20.5381H16.6675C17.5212 20.5381 18.2309 19.8146 18.2309 18.8881V10.1881C18.2309 10.1568 18.2329 10.1257 18.2368 10.095Z" fill="black" stroke="#F5F5F5" stroke-width="0.5"/>
<path d="M8.25 14.2881C8.25 13.8739 8.58579 13.5381 9 13.5381H15C15.4142 13.5381 15.75 13.8739 15.75 14.2881C15.75 14.7023 15.4142 15.0381 15 15.0381H9C8.58579 15.0381 8.25 14.7023 8.25 14.2881Z" fill="black" stroke="#F5F5F5" stroke-width="0.5"/>
<path d="M8.25 17.2881C8.25 16.8739 8.58579 16.5381 9 16.5381H12C12.4142 16.5381 12.75 16.8739 12.75 17.2881C12.75 17.7023 12.4142 18.0381 12 18.0381H9C8.58579 18.0381 8.25 17.7023 8.25 17.2881Z" fill="black" stroke="#F5F5F5" stroke-width="0.5"/>
</svg>
