<svg width="24" height="24" viewBox="0 0 24 24" fill="none" xmlns="http://www.w3.org/2000/svg">
<path d="M15.7145 15.9458H15.5645V16.0958V19.6587C15.5645 20.8929 14.5338 21.85 13.3051 21.85H10.5945C9.37421 21.85 8.43549 20.9012 8.43549 19.6587V16.0958V15.9458H8.28549H5.97647C5.22797 15.9458 4.58681 15.5704 4.3101 14.8222L4.31025 14.8222L4.30758 14.8159C4.0273 14.1527 4.12122 13.3979 4.58648 12.8318L4.58717 12.8309L10.108 6.01141C10.1081 6.01128 10.1083 6.01115 10.1084 6.01102C10.5793 5.43819 11.2378 5.15 12 5.15C12.7623 5.15 13.421 5.43832 13.892 6.01141L19.4135 12.73C19.8775 13.2946 19.9735 14.1508 19.6924 14.8159C19.413 15.477 18.7621 15.9458 18.0235 15.9458H15.7145ZM18.1735 13.9581V13.9044L18.1394 13.8628L12.6178 7.14428L12.6183 7.14389L12.6088 7.1342C12.3648 6.88684 12.1125 6.88593 12 6.88593C11.8875 6.88593 11.6352 6.88684 11.3912 7.1342L11.3908 7.13376L11.3822 7.14428L5.86058 13.8628L5.65904 14.1081H5.97647L9.28941 14.1081C9.55587 14.1081 9.76655 14.1974 9.91045 14.3434C10.0545 14.4895 10.1433 14.7041 10.1433 14.976V19.6587C10.1433 19.8154 10.2222 19.9316 10.3118 20.0042C10.3965 20.0729 10.5042 20.1141 10.5945 20.1141H13.3051C13.4532 20.1141 13.5868 20.0412 13.678 19.9641C13.725 19.9244 13.7665 19.8788 13.7975 19.8318C13.8257 19.7888 13.8567 19.7273 13.8567 19.6587V15.0778C13.8567 14.8059 13.9455 14.5913 14.0895 14.4451C14.2334 14.2992 14.4441 14.2099 14.7106 14.2099H18.0235H18.1735V14.0599V13.9581Z" fill="#263539" stroke="#F5F5F5" stroke-width="0.3"/>
<path d="M5.58209 2.15L18.5174 2.15C20.4239 2.15 21.85 3.58214 21.85 5.5V8C21.85 8.26614 21.7624 8.47616 21.62 8.6192C21.4778 8.76217 21.2692 8.85 21.005 8.85C20.7408 8.85 20.5322 8.76217 20.3899 8.6192C20.2476 8.47616 20.16 8.26614 20.16 8V5.5C20.16 4.61786 19.397 3.85 18.5174 3.85L5.48259 3.85C4.60302 3.85 3.84005 4.61786 3.84005 5.5V8C3.84005 8.26614 3.75241 8.47616 3.61009 8.6192C3.46783 8.76217 3.25922 8.85 2.99503 8.85C2.73083 8.85 2.52222 8.76217 2.37996 8.6192C2.23764 8.47616 2.15 8.26614 2.15 8V5.50377C2.24741 3.58062 3.67798 2.15 5.58209 2.15Z" fill="#263539" stroke="#F8F5F5" stroke-width="0.3"/>
</svg>
