<svg width="24" height="24" viewBox="0 0 24 24" fill="none" xmlns="http://www.w3.org/2000/svg">
<path fill-rule="evenodd" clip-rule="evenodd" d="M10.7377 16.6273C9.96409 16.6273 9.31877 16.036 9.25122 15.2654C9.10997 13.6541 9.07423 12.0356 9.14409 10.4203C9.05976 10.4147 8.97545 10.4088 8.89115 10.4026L7.4016 10.2941C6.44955 10.2247 5.91734 9.16306 6.43133 8.35868C7.52752 6.64317 9.53675 4.72311 11.1902 3.53538C11.674 3.18783 12.3256 3.18783 12.8095 3.53538C14.4629 4.72311 16.4721 6.64316 17.5683 8.35868C18.0823 9.16306 17.5501 10.2247 16.5981 10.2941L15.1085 10.4026C15.0242 10.4088 14.9399 10.4147 14.8556 10.4203C14.9254 12.0356 14.8897 13.6541 14.7484 15.2654C14.6809 16.036 14.0356 16.6273 13.262 16.6273H10.7377ZM10.6813 9.7625C10.5676 11.5498 10.5888 13.3431 10.7448 15.1273H13.2548C13.4108 13.3431 13.4321 11.5498 13.3184 9.7625C13.3056 9.56213 13.3737 9.36502 13.5075 9.21528C13.6412 9.06553 13.8294 8.97567 14.0299 8.96579C14.3533 8.94986 14.6765 8.93012 14.9995 8.90658L16.0813 8.82772C15.1217 7.41442 13.9202 6.18017 12.5311 5.18232L11.9998 4.80068L11.4685 5.18232C10.0794 6.18017 8.87795 7.41443 7.9184 8.82772L9.0002 8.90658C9.32319 8.93012 9.64638 8.94986 9.96972 8.96579C10.1702 8.97567 10.3584 9.06553 10.4922 9.21528C10.6259 9.36502 10.694 9.56213 10.6813 9.7625Z" fill="#505B5F"/>
<path d="M5.75 17C5.75 16.5858 5.41421 16.25 5 16.25C4.58579 16.25 4.25 16.5858 4.25 17V19C4.25 19.9665 5.0335 20.75 6 20.75H18C18.9665 20.75 19.75 19.9665 19.75 19V17C19.75 16.5858 19.4142 16.25 19 16.25C18.5858 16.25 18.25 16.5858 18.25 17V19C18.25 19.1381 18.1381 19.25 18 19.25H6C5.86193 19.25 5.75 19.1381 5.75 19V17Z" fill="#505B5F"/>
</svg>
