<svg width="37" height="37" viewBox="0 0 37 37" fill="none" xmlns="http://www.w3.org/2000/svg">
<circle cx="18.5" cy="18.5" r="17.75" stroke="black" stroke-width="1.5"/>
<path d="M26.6791 23.4082C25.6769 20.9592 23.7727 19.1224 21.4676 18.2041C22.7705 17.1837 23.5723 15.551 23.5723 13.8163C23.5723 10.551 21.0667 8 17.9598 8C14.853 8 12.3474 10.551 12.3474 13.7143C12.3474 15.449 13.1492 17.0816 14.4521 18.102C12.147 19.0204 10.2428 20.8571 9.24053 23.3061C8.83964 24.3265 8.93987 25.551 9.5412 26.4694C10.1425 27.4898 11.245 28 12.4476 28H23.5723C24.7749 28 25.7772 27.3878 26.4787 26.4694C27.08 25.551 27.1803 24.4286 26.6791 23.4082ZM14.3519 13.7143C14.3519 11.6735 15.9554 10.0408 17.9598 10.0408C19.9643 10.0408 21.5678 11.6735 21.5678 13.7143C21.5678 15.7551 19.9643 17.3878 17.9598 17.3878C15.9554 17.3878 14.3519 15.7551 14.3519 13.7143ZM24.7749 25.449C24.4743 25.8571 24.0734 26.1633 23.5723 26.1633H12.3474C11.8463 26.1633 11.4454 25.9592 11.1447 25.449C10.8441 25.0408 10.8441 24.6327 11.0445 24.2245C12.2472 21.2653 14.9532 19.4286 17.9598 19.4286C20.9665 19.4286 23.6725 21.2653 24.8752 24.1224C25.0756 24.5306 24.9754 25.0408 24.7749 25.449Z" fill="black"/>
</svg>
