<svg width="32" height="32" viewBox="0 0 32 32" fill="none" xmlns="http://www.w3.org/2000/svg">
<path d="M15 7C15.5523 7 16 7.44772 16 8C16 8.55228 15.5523 9 15 9C14.4477 9 14 8.55228 14 8C14 7.44772 14.4477 7 15 7ZM15 15C15.5523 15 16 15.4477 16 16C16 16.5522 15.5523 17 15 17C14.4477 17 14 16.5522 14 16C14 15.4477 14.4477 15 15 15ZM15 23C15.5523 23 16 23.4477 16 24C16 24.5522 15.5523 25 15 25C14.4477 25 14 24.5522 14 24C14 23.4477 14.4477 23 15 23Z" fill="#F5F5F5" stroke="#F5F5F5" stroke-width="3"/>
</svg>
